<svg xmlns="http://www.w3.org/2000/svg" width="2000" height="2000"><path d="M968,1053L943,1259L1203,1223Z" fill="#e9f0f5" stroke="#e9f0f5" stroke-width="1.51"/><path d="M1203,1223L1188,938L968,1053Z" fill="#eaf0f5" stroke="#eaf0f5" stroke-width="1.51"/><path d="M968,1053L732,1041L943,1259Z" fill="#f1edeb" stroke="#f1edeb" stroke-width="1.51"/><path d="M940,738L732,1041L968,1053Z" fill="#faeee7" stroke="#faeee7" stroke-width="1.51"/><path d="M943,1259L1000,1522L1203,1223Z" fill="#dbe9f1" stroke="#dbe9f1" stroke-width="1.51"/><path d="M707,1561L1000,1522L943,1259Z" fill="#d5dfe4" stroke="#d5dfe4" stroke-width="1.51"/><path d="M732,1041L705,1216L943,1259Z" fill="#efe7e3" stroke="#efe7e3" stroke-width="1.51"/><path d="M1000,1522L1195,1520L1203,1223Z" fill="#cce1ee" stroke="#cce1ee" stroke-width="1.51"/><path d="M1188,938L940,738L968,1053Z" fill="#f7f2ee" stroke="#f7f2ee" stroke-width="1.51"/><path d="M1544,978L1235,787L1188,938Z" fill="#e2e7ea" stroke="#e2e7ea" stroke-width="1.51"/><path d="M1544,978L1188,938L1203,1223Z" fill="#deeaf2" stroke="#deeaf2" stroke-width="1.51"/><path d="M1235,787L940,738L1188,938Z" fill="#f2eae6" stroke="#f2eae6" stroke-width="1.51"/><path d="M1460,1537L1544,1265L1203,1223Z" fill="#bddaea" stroke="#bddaea" stroke-width="1.51"/><path d="M1544,1265L1544,978L1203,1223Z" fill="#c9e0ed" stroke="#c9e0ed" stroke-width="1.51"/><path d="M705,1216L707,1561L943,1259Z" fill="#e1dfdf" stroke="#e1dfdf" stroke-width="1.51"/><path d="M1000,1522L951,1724L1195,1520Z" fill="#bfdae9" stroke="#bfdae9" stroke-width="1.51"/><path d="M705,1216L546,1320L707,1561Z" fill="#e0d5d0" stroke="#e0d5d0" stroke-width="1.51"/><path d="M457,1054L546,1320L705,1216Z" fill="#eed4c9" stroke="#eed4c9" stroke-width="1.51"/><path d="M1195,1520L1460,1537L1203,1223Z" fill="#c1dcec" stroke="#c1dcec" stroke-width="1.51"/><path d="M1459,1795L1460,1537L1195,1520Z" fill="#a1cae1" stroke="#a1cae1" stroke-width="1.51"/><path d="M707,1561L951,1724L1000,1522Z" fill="#c4d4df" stroke="#c4d4df" stroke-width="1.51"/><path d="M940,738L700,710L732,1041Z" fill="#fce4d6" stroke="#fce4d6" stroke-width="1.51"/><path d="M732,1041L457,1054L705,1216Z" fill="#f4ddd2" stroke="#f4ddd2" stroke-width="1.51"/><path d="M446,794L457,1054L732,1041Z" fill="#fbd6c5" stroke="#fbd6c5" stroke-width="1.51"/><path d="M1544,978L1540,771L1235,787Z" fill="#d6dde1" stroke="#d6dde1" stroke-width="1.51"/><path d="M1045,451L763,526L940,738Z" fill="#fad6c5" stroke="#fad6c5" stroke-width="1.51"/><path d="M940,738L763,526L700,710Z" fill="#fcd9c6" stroke="#fcd9c6" stroke-width="1.51"/><path d="M707,1561L741,1713L951,1724Z" fill="#bfcad5" stroke="#bfcad5" stroke-width="1.51"/><path d="M434,1704L741,1713L707,1561Z" fill="#c2bec2" stroke="#c2bec2" stroke-width="1.51"/><path d="M951,1724L1190,1832L1195,1520Z" fill="#afcee3" stroke="#afcee3" stroke-width="1.51"/><path d="M1024,2051L1190,1832L951,1724Z" fill="#a0bfdc" stroke="#a0bfdc" stroke-width="1.51"/><path d="M1544,978L1734,794L1540,771Z" fill="#c4d2dc" stroke="#c4d2dc" stroke-width="1.51"/><path d="M1544,1265L1743,998L1544,978Z" fill="#bad7e7" stroke="#bad7e7" stroke-width="1.51"/><path d="M1786,1318L1743,998L1544,1265Z" fill="#a9cce2" stroke="#a9cce2" stroke-width="1.51"/><path d="M700,710L446,794L732,1041Z" fill="#fcd8c6" stroke="#fcd8c6" stroke-width="1.51"/><path d="M1045,451L940,738L1235,787Z" fill="#f6e0d6" stroke="#f6e0d6" stroke-width="1.51"/><path d="M546,1320L442,1517L707,1561Z" fill="#d6c7c2" stroke="#d6c7c2" stroke-width="1.51"/><path d="M188,1212L442,1517L546,1320Z" fill="#e0bcb2" stroke="#e0bcb2" stroke-width="1.51"/><path d="M1236,454L1045,451L1235,787Z" fill="#f0d5c9" stroke="#f0d5c9" stroke-width="1.51"/><path d="M536,554L446,794L700,710Z" fill="#fbc8ae" stroke="#fbc8ae" stroke-width="1.51"/><path d="M457,1054L188,1212L546,1320Z" fill="#ecc3b5" stroke="#ecc3b5" stroke-width="1.51"/><path d="M1451,526L1236,454L1235,787Z" fill="#e6d2ca" stroke="#e6d2ca" stroke-width="1.51"/><path d="M1790,1472L1786,1318L1544,1265Z" fill="#98c3de" stroke="#98c3de" stroke-width="1.51"/><path d="M1790,1472L1544,1265L1460,1537Z" fill="#9dc9e0" stroke="#9dc9e0" stroke-width="1.51"/><path d="M1190,1832L1459,1795L1195,1520Z" fill="#9fc7e0" stroke="#9fc7e0" stroke-width="1.51"/><path d="M1747,541L1451,526L1540,771Z" fill="#cbc4c4" stroke="#cbc4c4" stroke-width="1.51"/><path d="M1540,771L1451,526L1235,787Z" fill="#dcd6d5" stroke="#dcd6d5" stroke-width="1.51"/><path d="M1743,998L1734,794L1544,978Z" fill="#bbcfdf" stroke="#bbcfdf" stroke-width="1.51"/><path d="M2008,776L1734,794L1743,998Z" fill="#abbed1" stroke="#abbed1" stroke-width="1.51"/><path d="M1783,1831L1790,1472L1460,1537Z" fill="#7db5d6" stroke="#7db5d6" stroke-width="1.51"/><path d="M763,526L536,554L700,710Z" fill="#fbcab0" stroke="#fbcab0" stroke-width="1.51"/><path d="M551,200L536,554L763,526Z" fill="#f8b496" stroke="#f8b496" stroke-width="1.51"/><path d="M741,1713L797,1958L951,1724Z" fill="#aebfd1" stroke="#aebfd1" stroke-width="1.51"/><path d="M442,1517L434,1704L707,1561Z" fill="#c9bbb9" stroke="#c9bbb9" stroke-width="1.51"/><path d="M178,1459L434,1704L442,1517Z" fill="#caaca7" stroke="#caaca7" stroke-width="1.51"/><path d="M468,1956L797,1958L741,1713Z" fill="#acaebe" stroke="#acaebe" stroke-width="1.51"/><path d="M1190,1832L1467,1974L1459,1795Z" fill="#84b4d6" stroke="#84b4d6" stroke-width="1.51"/><path d="M1024,2051L1198,2005L1190,1832Z" fill="#96b5d7" stroke="#96b5d7" stroke-width="1.51"/><path d="M446,794L209,1065L457,1054Z" fill="#f7c4b1" stroke="#f7c4b1" stroke-width="1.51"/><path d="M228,704L209,1065L446,794Z" fill="#f4b5a0" stroke="#f4b5a0" stroke-width="1.51"/><path d="M209,1065L188,1212L457,1054Z" fill="#edb8aa" stroke="#edb8aa" stroke-width="1.51"/><path d="M797,1958L1024,2051L951,1724Z" fill="#a4b9d4" stroke="#a4b9d4" stroke-width="1.51"/><path d="M1045,451L745,213L763,526Z" fill="#f8c1aa" stroke="#f8c1aa" stroke-width="1.51"/><path d="M1236,454L1065,273L1045,451Z" fill="#f0c5b5" stroke="#f0c5b5" stroke-width="1.51"/><path d="M1306,214L1065,273L1236,454Z" fill="#e9b8ac" stroke="#e9b8ac" stroke-width="1.51"/><path d="M1198,2005L1467,1974L1190,1832Z" fill="#8cb2d6" stroke="#8cb2d6" stroke-width="1.51"/><path d="M1459,1795L1783,1831L1460,1537Z" fill="#7db6d6" stroke="#7db6d6" stroke-width="1.51"/><path d="M1205,2318L1467,1974L1198,2005Z" fill="#84a4cf" stroke="#84a4cf" stroke-width="1.51"/><path d="M1786,1318L1963,1044L1743,998Z" fill="#9dc1dc" stroke="#9dc1dc" stroke-width="1.51"/><path d="M2011,1297L1963,1044L1786,1318Z" fill="#91b6d7" stroke="#91b6d7" stroke-width="1.51"/><path d="M1734,794L1747,541L1540,771Z" fill="#c0c4cb" stroke="#c0c4cb" stroke-width="1.51"/><path d="M1495,272L1306,214L1236,454Z" fill="#deb2a9" stroke="#deb2a9" stroke-width="1.51"/><path d="M2008,776L1747,541L1734,794Z" fill="#aeb6c4" stroke="#aeb6c4" stroke-width="1.51"/><path d="M188,1212L178,1459L442,1517Z" fill="#d7aba3" stroke="#d7aba3" stroke-width="1.51"/><path d="M209,1065L17,1257L188,1212Z" fill="#e3a59b" stroke="#e3a59b" stroke-width="1.51"/><path d="M536,554L228,704L446,794Z" fill="#f7b89c" stroke="#f7b89c" stroke-width="1.51"/><path d="M298,477L228,704L536,554Z" fill="#f3a88a" stroke="#f3a88a" stroke-width="1.51"/><path d="M1981,1543L2011,1297L1790,1472Z" fill="#7aabd1" stroke="#7aabd1" stroke-width="1.51"/><path d="M1790,1472L2011,1297L1786,1318Z" fill="#86b5d6" stroke="#86b5d6" stroke-width="1.51"/><path d="M1467,1974L1783,1831L1459,1795Z" fill="#6ba9cf" stroke="#6ba9cf" stroke-width="1.51"/><path d="M1495,272L1236,454L1451,526Z" fill="#ddbdb3" stroke="#ddbdb3" stroke-width="1.51"/><path d="M434,1704L468,1956L741,1713Z" fill="#b4abb3" stroke="#b4abb3" stroke-width="1.51"/><path d="M797,1958L968,2202L1024,2051Z" fill="#9dacce" stroke="#9dacce" stroke-width="1.51"/><path d="M221,1815L468,1956L434,1704Z" fill="#af979d" stroke="#af979d" stroke-width="1.51"/><path d="M1783,1831L1981,1543L1790,1472Z" fill="#66a6ce" stroke="#66a6ce" stroke-width="1.51"/><path d="M1747,541L1495,272L1451,526Z" fill="#cdb6b0" stroke="#cdb6b0" stroke-width="1.51"/><path d="M1065,273L745,213L1045,451Z" fill="#f4bcaa" stroke="#f4bcaa" stroke-width="1.51"/><path d="M954,25L745,213L1065,273Z" fill="#eeaa99" stroke="#eeaa99" stroke-width="1.51"/><path d="M1747,541L1791,247L1495,272Z" fill="#bea1a2" stroke="#bea1a2" stroke-width="1.51"/><path d="M1963,1044L2008,776L1743,998Z" fill="#a4bbd5" stroke="#a4bbd5" stroke-width="1.51"/><path d="M2265,991L2008,776L1963,1044Z" fill="#9cacce" stroke="#9cacce" stroke-width="1.51"/><path d="M551,200L298,477L536,554Z" fill="#f3a481" stroke="#f3a481" stroke-width="1.51"/><path d="M1024,2051L1205,2318L1198,2005Z" fill="#8ea6cf" stroke="#8ea6cf" stroke-width="1.51"/><path d="M1467,1974L1740,2044L1783,1831Z" fill="#5b99c7" stroke="#5b99c7" stroke-width="1.51"/><path d="M738,2294L968,2202L797,1958Z" fill="#9ba0bf" stroke="#9ba0bf" stroke-width="1.51"/><path d="M178,1459L221,1815L434,1704Z" fill="#bd9a9b" stroke="#bd9a9b" stroke-width="1.51"/><path d="M188,1212L17,1257L178,1459Z" fill="#da9f98" stroke="#da9f98" stroke-width="1.51"/><path d="M-32,959L17,1257L209,1065Z" fill="#e4a097" stroke="#e4a097" stroke-width="1.51"/><path d="M-32,959L209,1065L-3,777Z" fill="#e99f92" stroke="#e99f92" stroke-width="1.51"/><path d="M41,1785L221,1815L178,1459Z" fill="#b6898d" stroke="#b6898d" stroke-width="1.51"/><path d="M710,-78L551,200L745,213Z" fill="#e9957e" stroke="#e9957e" stroke-width="1.51"/><path d="M745,213L551,200L763,526Z" fill="#f3ad93" stroke="#f3ad93" stroke-width="1.51"/><path d="M1522,2320L1740,2044L1467,1974Z" fill="#6093c5" stroke="#6093c5" stroke-width="1.51"/><path d="M1783,1831L2061,1819L1981,1543Z" fill="#5094c5" stroke="#5094c5" stroke-width="1.51"/><path d="M-3,777L209,1065L228,704Z" fill="#eda391" stroke="#eda391" stroke-width="1.51"/><path d="M-36,449L228,704L298,477Z" fill="#e98e73" stroke="#e98e73" stroke-width="1.51"/><path d="M-36,449L-3,777L228,704Z" fill="#e68d78" stroke="#e68d78" stroke-width="1.51"/><path d="M2011,1297L2204,1233L1963,1044Z" fill="#8dabd2" stroke="#8dabd2" stroke-width="1.51"/><path d="M2280,1496L2204,1233L2011,1297Z" fill="#799bc5" stroke="#799bc5" stroke-width="1.51"/><path d="M2280,1496L2011,1297L1981,1543Z" fill="#719dca" stroke="#719dca" stroke-width="1.51"/><path d="M221,1815L226,1952L468,1956Z" fill="#a88793" stroke="#a88793" stroke-width="1.51"/><path d="M551,2267L738,2294L797,1958Z" fill="#9c96b0" stroke="#9c96b0" stroke-width="1.51"/><path d="M41,1785L226,1952L221,1815Z" fill="#a67c87" stroke="#a67c87" stroke-width="1.51"/><path d="M1193,-14L954,25L1065,273Z" fill="#e7a399" stroke="#e7a399" stroke-width="1.51"/><path d="M1193,-14L1065,273L1306,214Z" fill="#e4a69c" stroke="#e4a69c" stroke-width="1.51"/><path d="M738,2294L1205,2318L968,2202Z" fill="#8e99b9" stroke="#8e99b9" stroke-width="1.51"/><path d="M968,2202L1205,2318L1024,2051Z" fill="#8fa2c6" stroke="#8fa2c6" stroke-width="1.51"/><path d="M2008,776L2013,496L1747,541Z" fill="#aba4b4" stroke="#aba4b4" stroke-width="1.51"/><path d="M1557,-19L1193,-14L1306,214Z" fill="#d29692" stroke="#d29692" stroke-width="1.51"/><path d="M2294,691L2013,496L2008,776Z" fill="#a199b3" stroke="#a199b3" stroke-width="1.51"/><path d="M551,2267L797,1958L468,1956Z" fill="#a498af" stroke="#a498af" stroke-width="1.51"/><path d="M17,1257L-61,1500L178,1459Z" fill="#cc9290" stroke="#cc9290" stroke-width="1.51"/><path d="M-258,1322L-61,1500L17,1257Z" fill="#ca8686" stroke="#ca8686" stroke-width="1.51"/><path d="M2013,496L1791,247L1747,541Z" fill="#ae9aa2" stroke="#ae9aa2" stroke-width="1.51"/><path d="M1557,-19L1306,214L1495,272Z" fill="#ce9a96" stroke="#ce9a96" stroke-width="1.51"/><path d="M2041,1976L2061,1819L1783,1831Z" fill="#3b86bd" stroke="#3b86bd" stroke-width="1.51"/><path d="M-61,1500L41,1785L178,1459Z" fill="#bc898a" stroke="#bc898a" stroke-width="1.51"/><path d="M224,2319L468,1956L226,1952Z" fill="#a0798d" stroke="#a0798d" stroke-width="1.51"/><path d="M224,2319L551,2267L468,1956Z" fill="#9c7b8e" stroke="#9c7b8e" stroke-width="1.51"/><path d="M2204,1233L2265,991L1963,1044Z" fill="#90a6cd" stroke="#90a6cd" stroke-width="1.51"/><path d="M2280,1496L2265,991L2204,1233Z" fill="#7e96bc" stroke="#7e96bc" stroke-width="1.51"/><path d="M1740,2044L2041,1976L1783,1831Z" fill="#3d89be" stroke="#3d89be" stroke-width="1.51"/><path d="M1205,2318L1522,2320L1467,1974Z" fill="#7193be" stroke="#7193be" stroke-width="1.51"/><path d="M2265,1745L2280,1496L1981,1543Z" fill="#598bbc" stroke="#598bbc" stroke-width="1.51"/><path d="M1522,2320L1751,2228L1740,2044Z" fill="#4d82b4" stroke="#4d82b4" stroke-width="1.51"/><path d="M2061,1819L2265,1745L1981,1543Z" fill="#4d89bf" stroke="#4d89bf" stroke-width="1.51"/><path d="M2015,2279L2041,1976L1740,2044Z" fill="#3076b5" stroke="#3076b5" stroke-width="1.51"/><path d="M1713,-10L1557,-19L1495,272Z" fill="#bd8b8c" stroke="#bd8b8c" stroke-width="1.51"/><path d="M1713,-10L1495,272L1791,247Z" fill="#b98d90" stroke="#b98d90" stroke-width="1.51"/><path d="M954,25L710,-78L745,213Z" fill="#e89887" stroke="#e89887" stroke-width="1.51"/><path d="M551,200L180,210L298,477Z" fill="#e8886a" stroke="#e8886a" stroke-width="1.51"/><path d="M1066,-218L710,-78L954,25Z" fill="#e18f85" stroke="#e18f85" stroke-width="1.51"/><path d="M1066,-218L954,25L1193,-14Z" fill="#de938d" stroke="#de938d" stroke-width="1.51"/><path d="M222,-58L180,210L551,200Z" fill="#dd6f59" stroke="#dd6f59" stroke-width="1.51"/><path d="M180,210L-36,449L298,477Z" fill="#e27a60" stroke="#e27a60" stroke-width="1.51"/><path d="M-339,1055L17,1257L-32,959Z" fill="#db8e89" stroke="#db8e89" stroke-width="1.51"/><path d="M-339,1055L-258,1322L17,1257Z" fill="#c88686" stroke="#c88686" stroke-width="1.51"/><path d="M1990,-67L1713,-10L1791,247Z" fill="#a37380" stroke="#a37380" stroke-width="1.51"/><path d="M2265,991L2294,691L2008,776Z" fill="#999bb9" stroke="#999bb9" stroke-width="1.51"/><path d="M2280,1496L2294,691L2265,991Z" fill="#8997ba" stroke="#8997ba" stroke-width="1.51"/><path d="M-61,1500L-273,1698L41,1785Z" fill="#ad747d" stroke="#ad747d" stroke-width="1.51"/><path d="M-233,740L-32,959L-3,777Z" fill="#e08a7e" stroke="#e08a7e" stroke-width="1.51"/><path d="M2278,1981L2265,1745L2061,1819Z" fill="#3073ab" stroke="#3073ab" stroke-width="1.51"/><path d="M1309,-215L1066,-218L1193,-14Z" fill="#d08987" stroke="#d08987" stroke-width="1.51"/><path d="M2035,226L1791,247L2013,496Z" fill="#a78693" stroke="#a78693" stroke-width="1.51"/><path d="M2246,456L2035,226L2013,496Z" fill="#a18195" stroke="#a18195" stroke-width="1.51"/><path d="M710,-78L532,-85L551,200Z" fill="#e2836f" stroke="#e2836f" stroke-width="1.51"/><path d="M-36,449L-233,740L-3,777Z" fill="#de7f6f" stroke="#de7f6f" stroke-width="1.51"/><path d="M41,1785L9,2044L226,1952Z" fill="#9f6f7f" stroke="#9f6f7f" stroke-width="1.51"/><path d="M-312,2034L9,2044L41,1785Z" fill="#955c72" stroke="#955c72" stroke-width="1.51"/><path d="M2294,691L2246,456L2013,496Z" fill="#9d879d" stroke="#9d879d" stroke-width="1.51"/><path d="M710,-78L704,-219L532,-85Z" fill="#db7b6c" stroke="#db7b6c" stroke-width="1.51"/><path d="M1309,-215L1193,-14L1557,-19Z" fill="#cb8987" stroke="#cb8987" stroke-width="1.51"/><path d="M1532,-256L1309,-215L1557,-19Z" fill="#b87d81" stroke="#b87d81" stroke-width="1.51"/><path d="M-233,740L-339,1055L-32,959Z" fill="#d28782" stroke="#d28782" stroke-width="1.51"/><path d="M9,2044L224,2319L226,1952Z" fill="#99657d" stroke="#99657d" stroke-width="1.51"/><path d="M551,2267L224,2319L738,2294Z" fill="#947889" stroke="#947889" stroke-width="1.51"/><path d="M738,2294L224,2319L1205,2318Z" fill="#9189a0" stroke="#9189a0" stroke-width="1.51"/><path d="M1205,2318L224,2319L1522,2320Z" fill="#8b94b4" stroke="#8b94b4" stroke-width="1.51"/><path d="M1066,-218L704,-219L710,-78Z" fill="#d7857b" stroke="#d7857b" stroke-width="1.51"/><path d="M-258,1322L-317,1561L-61,1500Z" fill="#b17a7f" stroke="#b17a7f" stroke-width="1.51"/><path d="M-339,1055L-317,1561L-258,1322Z" fill="#b17c81" stroke="#b17c81" stroke-width="1.51"/><path d="M-317,1561L-273,1698L-61,1500Z" fill="#a5727b" stroke="#a5727b" stroke-width="1.51"/><path d="M9,2044L28,2260L224,2319Z" fill="#8e546d" stroke="#8e546d" stroke-width="1.51"/><path d="M-36,449L-323,441L-233,740Z" fill="#cd6d5e" stroke="#cd6d5e" stroke-width="1.51"/><path d="M-233,740L-323,441L-339,1055Z" fill="#c37971" stroke="#c37971" stroke-width="1.51"/><path d="M180,210L-79,274L-36,449Z" fill="#d66552" stroke="#d66552" stroke-width="1.51"/><path d="M-66,-14L-79,274L180,210Z" fill="#cd4f43" stroke="#cd4f43" stroke-width="1.51"/><path d="M222,-58L551,200L532,-85Z" fill="#dd745d" stroke="#dd745d" stroke-width="1.51"/><path d="M2041,1976L2278,1981L2061,1819Z" fill="#2e75b3" stroke="#2e75b3" stroke-width="1.51"/><path d="M2265,1745L2278,1981L2280,1496Z" fill="#3e74a7" stroke="#3e74a7" stroke-width="1.51"/><path d="M2280,1496L2338,43L2294,691Z" fill="#918ba3" stroke="#918ba3" stroke-width="1.51"/><path d="M2249,2275L2278,1981L2041,1976Z" fill="#2162a4" stroke="#2162a4" stroke-width="1.51"/><path d="M1522,2320L2015,2279L1751,2228Z" fill="#3b72a5" stroke="#3b72a5" stroke-width="1.51"/><path d="M1751,2228L2015,2279L1740,2044Z" fill="#3276ae" stroke="#3276ae" stroke-width="1.51"/><path d="M481,-305L222,-58L532,-85Z" fill="#cf6151" stroke="#cf6151" stroke-width="1.51"/><path d="M2338,43L2207,216L2246,456Z" fill="#8f5e71" stroke="#8f5e71" stroke-width="1.51"/><path d="M2246,456L2207,216L2035,226Z" fill="#9a7085" stroke="#9a7085" stroke-width="1.51"/><path d="M2035,226L1990,-67L1791,247Z" fill="#a17282" stroke="#a17282" stroke-width="1.51"/><path d="M1713,-10L1532,-256L1557,-19Z" fill="#b3797f" stroke="#b3797f" stroke-width="1.51"/><path d="M1822,-231L1532,-256L1713,-10Z" fill="#a26d79" stroke="#a26d79" stroke-width="1.51"/><path d="M1309,-215L1532,-256L1066,-218Z" fill="#bd8083" stroke="#bd8083" stroke-width="1.51"/><path d="M1066,-218L481,-305L704,-219Z" fill="#cb7c73" stroke="#cb7c73" stroke-width="1.51"/><path d="M-316,2214L28,2260L9,2044Z" fill="#884765" stroke="#884765" stroke-width="1.51"/><path d="M2207,216L1990,-67L2035,226Z" fill="#99667c" stroke="#99667c" stroke-width="1.51"/><path d="M-270,182L-323,441L-79,274Z" fill="#be4f46" stroke="#be4f46" stroke-width="1.51"/><path d="M-79,274L-323,441L-36,449Z" fill="#ce5e4f" stroke="#ce5e4f" stroke-width="1.51"/><path d="M222,-58L-66,-14L180,210Z" fill="#cc4f43" stroke="#cc4f43" stroke-width="1.51"/><path d="M704,-219L481,-305L532,-85Z" fill="#cd6f61" stroke="#cd6f61" stroke-width="1.51"/><path d="M1532,-256L481,-305L1066,-218Z" fill="#c98786" stroke="#c98786" stroke-width="1.51"/><path d="M1990,-67L1822,-231L1713,-10Z" fill="#9a6475" stroke="#9a6475" stroke-width="1.51"/><path d="M2015,2279L2249,2275L2041,1976Z" fill="#2062a4" stroke="#2062a4" stroke-width="1.51"/><path d="M1522,2320L2249,2275L2015,2279Z" fill="#27639c" stroke="#27639c" stroke-width="1.51"/><path d="M-316,2214L-312,2034L-317,1561Z" fill="#78506a" stroke="#78506a" stroke-width="1.51"/><path d="M-317,1561L-312,2034L-273,1698Z" fill="#865f71" stroke="#865f71" stroke-width="1.51"/><path d="M-273,1698L-312,2034L41,1785Z" fill="#905f72" stroke="#905f72" stroke-width="1.51"/><path d="M-78,-309L-66,-14L222,-58Z" fill="#bb2f33" stroke="#bb2f33" stroke-width="1.51"/><path d="M-66,-14L-270,182L-79,274Z" fill="#c13e3a" stroke="#c13e3a" stroke-width="1.51"/><path d="M2207,216L2338,43L1990,-67Z" fill="#8f556f" stroke="#8f556f" stroke-width="1.51"/><path d="M1990,-67L2087,-289L1822,-231Z" fill="#88536d" stroke="#88536d" stroke-width="1.51"/><path d="M2294,691L2338,43L2246,456Z" fill="#926d7d" stroke="#926d7d" stroke-width="1.51"/><path d="M2278,1981L2338,43L2280,1496Z" fill="#8093b6" stroke="#8093b6" stroke-width="1.51"/><path d="M-66,-14L-318,-59L-270,182Z" fill="#ae2d32" stroke="#ae2d32" stroke-width="1.51"/><path d="M481,-305L239,-334L222,-58Z" fill="#bd5046" stroke="#bd5046" stroke-width="1.51"/><path d="M2087,-289L239,-334L481,-305Z" fill="#c28280" stroke="#c28280" stroke-width="1.51"/><path d="M-312,2034L-316,2214L9,2044Z" fill="#804868" stroke="#804868" stroke-width="1.51"/><path d="M28,2260L-316,2214L224,2319Z" fill="#83455e" stroke="#83455e" stroke-width="1.51"/><path d="M-339,1055L-316,2214L-317,1561Z" fill="#926a77" stroke="#926a77" stroke-width="1.51"/><path d="M1532,-256L2087,-289L481,-305Z" fill="#af7a80" stroke="#af7a80" stroke-width="1.51"/><path d="M1822,-231L2087,-289L1532,-256Z" fill="#885d71" stroke="#885d71" stroke-width="1.51"/><path d="M2263,-255L2087,-289L1990,-67Z" fill="#804768" stroke="#804768" stroke-width="1.51"/><path d="M-78,-309L-318,-59L-66,-14Z" fill="#ac162b" stroke="#ac162b" stroke-width="1.51"/><path d="M-270,182L-318,-59L-323,441Z" fill="#ac3c3a" stroke="#ac3c3a" stroke-width="1.51"/><path d="M-323,441L-318,-59L-339,1055Z" fill="#b85f53" stroke="#b85f53" stroke-width="1.51"/><path d="M2338,43L2263,-255L1990,-67Z" fill="#864562" stroke="#864562" stroke-width="1.51"/><path d="M239,-334L-78,-309L222,-58Z" fill="#b23837" stroke="#b23837" stroke-width="1.51"/><path d="M239,-334L-276,-307L-78,-309Z" fill="#9c1e2b" stroke="#9c1e2b" stroke-width="1.51"/><path d="M-78,-309L-276,-307L-318,-59Z" fill="#950e27" stroke="#950e27" stroke-width="1.51"/></svg>