<svg xmlns="http://www.w3.org/2000/svg" width="2000" height="2000"><path d="M810,1004L1133,499L616,630Z" fill="#93d283" stroke="#93d283" stroke-width="1.51"/><path d="M810,1004L1420,722L1133,499Z" fill="#82ca7b" stroke="#82ca7b" stroke-width="1.51"/><path d="M1133,499L586,238L616,630Z" fill="#a6da8b" stroke="#a6da8b" stroke-width="1.51"/><path d="M616,630L281,604L810,1004Z" fill="#a2d889" stroke="#a2d889" stroke-width="1.51"/><path d="M586,238L281,604L616,630Z" fill="#b4e091" stroke="#b4e091" stroke-width="1.51"/><path d="M586,238L213,201L281,604Z" fill="#c2e698" stroke="#c2e698" stroke-width="1.51"/><path d="M1133,499L685,35L586,238Z" fill="#aedd8f" stroke="#aedd8f" stroke-width="1.51"/><path d="M1209,32L685,35L1133,499Z" fill="#a6d98c" stroke="#a6d98c" stroke-width="1.51"/><path d="M810,1004L1521,1127L1420,722Z" fill="#6cc072" stroke="#6cc072" stroke-width="1.51"/><path d="M1720,198L1209,32L1133,499Z" fill="#90ce7f" stroke="#90ce7f" stroke-width="1.51"/><path d="M810,1004L1233,1404L1521,1127Z" fill="#63ba6d" stroke="#63ba6d" stroke-width="1.51"/><path d="M954,1577L1233,1404L810,1004Z" fill="#65bc6e" stroke="#65bc6e" stroke-width="1.51"/><path d="M1420,722L1720,198L1133,499Z" fill="#80c778" stroke="#80c778" stroke-width="1.51"/><path d="M1521,1127L1681,818L1420,722Z" fill="#62b76a" stroke="#62b76a" stroke-width="1.51"/><path d="M203,1356L954,1577L810,1004Z" fill="#7cc677" stroke="#7cc677" stroke-width="1.51"/><path d="M223,116L213,201L586,238Z" fill="#cbea9c" stroke="#cbea9c" stroke-width="1.51"/><path d="M213,201L78,400L281,604Z" fill="#c8e99b" stroke="#c8e99b" stroke-width="1.51"/><path d="M281,604L203,1356L810,1004Z" fill="#9bd587" stroke="#9bd587" stroke-width="1.51"/><path d="M213,201L-279,29L78,400Z" fill="#d9f0a4" stroke="#d9f0a4" stroke-width="1.51"/><path d="M685,35L223,116L586,238Z" fill="#c6e89a" stroke="#c6e89a" stroke-width="1.51"/><path d="M-169,720L203,1356L281,604Z" fill="#b0de91" stroke="#b0de91" stroke-width="1.51"/><path d="M1681,818L1720,198L1420,722Z" fill="#74bc6f" stroke="#74bc6f" stroke-width="1.51"/><path d="M1720,198L1754,88L1209,32Z" fill="#8ec87c" stroke="#8ec87c" stroke-width="1.51"/><path d="M2048,321L1754,88L1720,198Z" fill="#80b971" stroke="#80b971" stroke-width="1.51"/><path d="M203,1356L180,1491L954,1577Z" fill="#80c576" stroke="#80c576" stroke-width="1.51"/><path d="M-264,1139L180,1491L203,1356Z" fill="#9ad285" stroke="#9ad285" stroke-width="1.51"/><path d="M78,400L-169,720L281,604Z" fill="#c4e799" stroke="#c4e799" stroke-width="1.51"/><path d="M-576,436L-169,720L78,400Z" fill="#d1eca2" stroke="#d1eca2" stroke-width="1.51"/><path d="M954,1577L1334,1730L1233,1404Z" fill="#4fad61" stroke="#4fad61" stroke-width="1.51"/><path d="M1233,1404L1596,1683L1521,1127Z" fill="#43ab5d" stroke="#43ab5d" stroke-width="1.51"/><path d="M2262,1219L2187,851L1681,818Z" fill="#4ea05c" stroke="#4ea05c" stroke-width="1.51"/><path d="M1156,1944L1334,1730L954,1577Z" fill="#4ba65d" stroke="#4ba65d" stroke-width="1.51"/><path d="M685,35L227,-424L223,116Z" fill="#d3eea2" stroke="#d3eea2" stroke-width="1.51"/><path d="M1209,32L704,-426L685,35Z" fill="#bae297" stroke="#bae297" stroke-width="1.51"/><path d="M1310,-680L704,-426L1209,32Z" fill="#b5df98" stroke="#b5df98" stroke-width="1.51"/><path d="M1334,1730L1596,1683L1233,1404Z" fill="#3fa559" stroke="#3fa559" stroke-width="1.51"/><path d="M1681,818L2048,321L1720,198Z" fill="#75b56c" stroke="#75b56c" stroke-width="1.51"/><path d="M2187,851L2048,321L1681,818Z" fill="#64aa63" stroke="#64aa63" stroke-width="1.51"/><path d="M180,1491L619,1885L954,1577Z" fill="#72ba6e" stroke="#72ba6e" stroke-width="1.51"/><path d="M1334,1730L1780,2179L1596,1683Z" fill="#2e924c" stroke="#2e924c" stroke-width="1.51"/><path d="M-169,720L-264,1139L203,1356Z" fill="#addc90" stroke="#addc90" stroke-width="1.51"/><path d="M180,1491L43,1674L619,1885Z" fill="#82bf73" stroke="#82bf73" stroke-width="1.51"/><path d="M619,1885L1156,1944L954,1577Z" fill="#59ab62" stroke="#59ab62" stroke-width="1.51"/><path d="M2262,1219L1681,818L1521,1127Z" fill="#4fa65d" stroke="#4fa65d" stroke-width="1.51"/><path d="M-264,1139L43,1674L180,1491Z" fill="#97d083" stroke="#97d083" stroke-width="1.51"/><path d="M-576,436L-372,947L-169,720Z" fill="#cae9a2" stroke="#cae9a2" stroke-width="1.51"/><path d="M-169,720L-372,947L-264,1139Z" fill="#bbe299" stroke="#bbe299" stroke-width="1.51"/><path d="M704,-426L227,-424L685,35Z" fill="#d2eda3" stroke="#d2eda3" stroke-width="1.51"/><path d="M223,116L-279,29L213,201Z" fill="#dcf1a4" stroke="#dcf1a4" stroke-width="1.51"/><path d="M-35,-427L-279,29L223,116Z" fill="#e6f5ac" stroke="#e6f5ac" stroke-width="1.51"/><path d="M2187,851L2325,869L2048,321Z" fill="#5da260" stroke="#5da260" stroke-width="1.51"/><path d="M2262,1219L2325,869L2187,851Z" fill="#489858" stroke="#489858" stroke-width="1.51"/><path d="M1995,1738L2262,1219L1521,1127Z" fill="#379852" stroke="#379852" stroke-width="1.51"/><path d="M1573,-621L1209,32L1754,88Z" fill="#9ace84" stroke="#9ace84" stroke-width="1.51"/><path d="M1573,-621L1310,-680L1209,32Z" fill="#a7d791" stroke="#a7d791" stroke-width="1.51"/><path d="M704,-426L1310,-680L227,-424Z" fill="#c9e8a8" stroke="#c9e8a8" stroke-width="1.51"/><path d="M2048,321L2232,52L1754,88Z" fill="#7eb56e" stroke="#7eb56e" stroke-width="1.51"/><path d="M2680,549L2232,52L2048,321Z" fill="#6ea666" stroke="#6ea666" stroke-width="1.51"/><path d="M227,-424L-35,-427L223,116Z" fill="#e5f5ab" stroke="#e5f5ab" stroke-width="1.51"/><path d="M1310,-680L-35,-427L227,-424Z" fill="#d7efae" stroke="#d7efae" stroke-width="1.51"/><path d="M2275,-630L1573,-621L1754,88Z" fill="#93c080" stroke="#93c080" stroke-width="1.51"/><path d="M1780,2179L1995,1738L1596,1683Z" fill="#278846" stroke="#278846" stroke-width="1.51"/><path d="M1596,1683L1995,1738L1521,1127Z" fill="#369b52" stroke="#369b52" stroke-width="1.51"/><path d="M43,1674L549,2175L619,1885Z" fill="#74b26a" stroke="#74b26a" stroke-width="1.51"/><path d="M619,1885L826,2366L1156,1944Z" fill="#55a25e" stroke="#55a25e" stroke-width="1.51"/><path d="M1156,1944L1780,2179L1334,1730Z" fill="#31954f" stroke="#31954f" stroke-width="1.51"/><path d="M-279,29L-576,436L78,400Z" fill="#def2a8" stroke="#def2a8" stroke-width="1.51"/><path d="M-497,-193L-576,436L-279,29Z" fill="#ebf7b5" stroke="#ebf7b5" stroke-width="1.51"/><path d="M2714,1764L2419,1146L2262,1219Z" fill="#298449" stroke="#298449" stroke-width="1.51"/><path d="M2262,1219L2419,1146L2325,869Z" fill="#409355" stroke="#409355" stroke-width="1.51"/><path d="M2325,869L2680,549L2048,321Z" fill="#609f60" stroke="#609f60" stroke-width="1.51"/><path d="M549,2175L826,2366L619,1885Z" fill="#5fa461" stroke="#5fa461" stroke-width="1.51"/><path d="M826,2366L1132,2360L1156,1944Z" fill="#459858" stroke="#459858" stroke-width="1.51"/><path d="M-372,947L-615,1403L-264,1139Z" fill="#b1dd98" stroke="#b1dd98" stroke-width="1.51"/><path d="M-264,1139L-544,1586L43,1674Z" fill="#9ed287" stroke="#9ed287" stroke-width="1.51"/><path d="M43,1674L-126,2415L549,2175Z" fill="#7cb16d" stroke="#7cb16d" stroke-width="1.51"/><path d="M549,2175L257,2734L826,2366Z" fill="#609d60" stroke="#609d60" stroke-width="1.51"/><path d="M-576,436L-615,1403L-372,947Z" fill="#bfe4a4" stroke="#bfe4a4" stroke-width="1.51"/><path d="M-35,-427L-497,-193L-279,29Z" fill="#f2fab5" stroke="#f2fab5" stroke-width="1.51"/><path d="M-615,1403L-544,1586L-264,1139Z" fill="#a6d693" stroke="#a6d693" stroke-width="1.51"/><path d="M1132,2360L1780,2179L1156,1944Z" fill="#31904e" stroke="#31904e" stroke-width="1.51"/><path d="M1995,1738L2714,1764L2262,1219Z" fill="#208346" stroke="#208346" stroke-width="1.51"/><path d="M2419,1146L2680,549L2325,869Z" fill="#4c9357" stroke="#4c9357" stroke-width="1.51"/><path d="M2680,549L2588,-54L2232,52Z" fill="#71a066" stroke="#71a066" stroke-width="1.51"/><path d="M2232,52L2275,-630L1754,88Z" fill="#87b675" stroke="#87b675" stroke-width="1.51"/><path d="M1754,2433L2122,2163L1780,2179Z" fill="#17783e" stroke="#17783e" stroke-width="1.51"/><path d="M1780,2179L2122,2163L1995,1738Z" fill="#1c7c40" stroke="#1c7c40" stroke-width="1.51"/><path d="M2419,1146L2714,1764L2680,549Z" fill="#37854d" stroke="#37854d" stroke-width="1.51"/><path d="M2588,-54L2275,-630L2232,52Z" fill="#82ac72" stroke="#82ac72" stroke-width="1.51"/><path d="M1573,-621L2356,-752L1310,-680Z" fill="#9ac791" stroke="#9ac791" stroke-width="1.51"/><path d="M1132,2360L1754,2433L1780,2179Z" fill="#218446" stroke="#218446" stroke-width="1.51"/><path d="M257,2734L1754,2433L1132,2360Z" fill="#3f8c52" stroke="#3f8c52" stroke-width="1.51"/><path d="M826,2366L257,2734L1132,2360Z" fill="#53955a" stroke="#53955a" stroke-width="1.51"/><path d="M-544,1586L-224,2312L43,1674Z" fill="#91bf7a" stroke="#91bf7a" stroke-width="1.51"/><path d="M-224,2312L-126,2415L43,1674Z" fill="#84b473" stroke="#84b473" stroke-width="1.51"/><path d="M2588,-54L2356,-752L2275,-630Z" fill="#86ad7b" stroke="#86ad7b" stroke-width="1.51"/><path d="M2275,-630L2356,-752L1573,-621Z" fill="#91ba89" stroke="#91ba89" stroke-width="1.51"/><path d="M-497,-193L-737,-517L-576,436Z" fill="#f2fac2" stroke="#f2fac2" stroke-width="1.51"/><path d="M-576,436L-737,-517L-615,1403Z" fill="#dbf0b6" stroke="#dbf0b6" stroke-width="1.51"/><path d="M-35,-427L-737,-517L-497,-193Z" fill="#f9fcc1" stroke="#f9fcc1" stroke-width="1.51"/><path d="M1310,-680L-737,-517L-35,-427Z" fill="#e7f6b7" stroke="#e7f6b7" stroke-width="1.51"/><path d="M2628,2134L2714,1764L2122,2163Z" fill="#0e6a38" stroke="#0e6a38" stroke-width="1.51"/><path d="M2122,2163L2714,1764L1995,1738Z" fill="#15773d" stroke="#15773d" stroke-width="1.51"/><path d="M-126,2415L257,2734L549,2175Z" fill="#70a266" stroke="#70a266" stroke-width="1.51"/><path d="M1754,2433L2283,2349L2122,2163Z" fill="#0d703a" stroke="#0d703a" stroke-width="1.51"/><path d="M2496,2502L2283,2349L1754,2433Z" fill="#066837" stroke="#066837" stroke-width="1.51"/><path d="M-544,1586L-737,2134L-224,2312Z" fill="#91bc82" stroke="#91bc82" stroke-width="1.51"/><path d="M-224,2312L-448,2675L-126,2415Z" fill="#82a970" stroke="#82a970" stroke-width="1.51"/><path d="M-126,2415L-448,2675L257,2734Z" fill="#7aa06a" stroke="#7aa06a" stroke-width="1.51"/><path d="M-615,1403L-737,2134L-544,1586Z" fill="#9bc890" stroke="#9bc890" stroke-width="1.51"/><path d="M-737,-517L-737,2134L-615,1403Z" fill="#bce3ab" stroke="#bce3ab" stroke-width="1.51"/><path d="M2283,2349L2628,2134L2122,2163Z" fill="#056a38" stroke="#056a38" stroke-width="1.51"/><path d="M-737,2134L-448,2675L-224,2312Z" fill="#87af7b" stroke="#87af7b" stroke-width="1.51"/><path d="M2283,2349L2496,2502L2628,2134Z" fill="#006134" stroke="#006134" stroke-width="1.51"/><path d="M257,2734L2496,2502L1754,2433Z" fill="#217c43" stroke="#217c43" stroke-width="1.51"/></svg>