<svg xmlns="http://www.w3.org/2000/svg" width="2000" height="2000"><path d="M968,1053L943,1259L1203,1223Z" fill="#938be5" stroke="#938be5" stroke-width="1.51"/><path d="M1203,1223L1188,938L968,1053Z" fill="#958ee6" stroke="#958ee6" stroke-width="1.51"/><path d="M968,1053L732,1041L943,1259Z" fill="#a499e2" stroke="#a499e2" stroke-width="1.51"/><path d="M940,738L732,1041L968,1053Z" fill="#b1a6e2" stroke="#b1a6e2" stroke-width="1.51"/><path d="M943,1259L1000,1522L1203,1223Z" fill="#867ddf" stroke="#867ddf" stroke-width="1.51"/><path d="M707,1561L1000,1522L943,1259Z" fill="#8d7cd7" stroke="#8d7cd7" stroke-width="1.51"/><path d="M732,1041L705,1216L943,1259Z" fill="#a898db" stroke="#a898db" stroke-width="1.51"/><path d="M1000,1522L1195,1520L1203,1223Z" fill="#796eda" stroke="#796eda" stroke-width="1.51"/><path d="M1188,938L940,738L968,1053Z" fill="#a89fe6" stroke="#a89fe6" stroke-width="1.51"/><path d="M1544,978L1235,787L1188,938Z" fill="#9586dc" stroke="#9586dc" stroke-width="1.51"/><path d="M1544,978L1188,938L1203,1223Z" fill="#887fe0" stroke="#887fe0" stroke-width="1.51"/><path d="M1235,787L940,738L1188,938Z" fill="#a99bde" stroke="#a99bde" stroke-width="1.51"/><path d="M1460,1537L1544,1265L1203,1223Z" fill="#695dd4" stroke="#695dd4" stroke-width="1.51"/><path d="M1544,1265L1544,978L1203,1223Z" fill="#776bd9" stroke="#776bd9" stroke-width="1.51"/><path d="M705,1216L707,1561L943,1259Z" fill="#9e89d6" stroke="#9e89d6" stroke-width="1.51"/><path d="M1000,1522L951,1724L1195,1520Z" fill="#7266d7" stroke="#7266d7" stroke-width="1.51"/><path d="M705,1216L546,1320L707,1561Z" fill="#a68cce" stroke="#a68cce" stroke-width="1.51"/><path d="M457,1054L546,1320L705,1216Z" fill="#b89fcf" stroke="#b89fcf" stroke-width="1.51"/><path d="M1195,1520L1460,1537L1203,1223Z" fill="#6c60d5" stroke="#6c60d5" stroke-width="1.51"/><path d="M1459,1795L1460,1537L1195,1520Z" fill="#5249cc" stroke="#5249cc" stroke-width="1.51"/><path d="M707,1561L951,1724L1000,1522Z" fill="#816ed3" stroke="#816ed3" stroke-width="1.51"/><path d="M940,738L700,710L732,1041Z" fill="#c1aed7" stroke="#c1aed7" stroke-width="1.51"/><path d="M732,1041L457,1054L705,1216Z" fill="#b9a4d5" stroke="#b9a4d5" stroke-width="1.51"/><path d="M446,794L457,1054L732,1041Z" fill="#c9b3d1" stroke="#c9b3d1" stroke-width="1.51"/><path d="M1544,978L1540,771L1235,787Z" fill="#917ed6" stroke="#917ed6" stroke-width="1.51"/><path d="M1045,451L763,526L940,738Z" fill="#cbb4d0" stroke="#cbb4d0" stroke-width="1.51"/><path d="M940,738L763,526L700,710Z" fill="#ccb5cf" stroke="#ccb5cf" stroke-width="1.51"/><path d="M707,1561L741,1713L951,1724Z" fill="#856bcd" stroke="#856bcd" stroke-width="1.51"/><path d="M434,1704L741,1713L707,1561Z" fill="#9572c5" stroke="#9572c5" stroke-width="1.51"/><path d="M951,1724L1190,1832L1195,1520Z" fill="#6458d2" stroke="#6458d2" stroke-width="1.51"/><path d="M1024,2051L1190,1832L951,1724Z" fill="#6c6dcd" stroke="#6c6dcd" stroke-width="1.51"/><path d="M1544,978L1734,794L1540,771Z" fill="#856fd1" stroke="#856fd1" stroke-width="1.51"/><path d="M1544,1265L1743,998L1544,978Z" fill="#6e62d6" stroke="#6e62d6" stroke-width="1.51"/><path d="M1786,1318L1743,998L1544,1265Z" fill="#5d51d0" stroke="#5d51d0" stroke-width="1.51"/><path d="M700,710L446,794L732,1041Z" fill="#cbb4cf" stroke="#cbb4cf" stroke-width="1.51"/><path d="M1045,451L940,738L1235,787Z" fill="#baa6d7" stroke="#baa6d7" stroke-width="1.51"/><path d="M546,1320L442,1517L707,1561Z" fill="#a786c7" stroke="#a786c7" stroke-width="1.51"/><path d="M188,1212L442,1517L546,1320Z" fill="#bb98c1" stroke="#bb98c1" stroke-width="1.51"/><path d="M1236,454L1045,451L1235,787Z" fill="#baa1cf" stroke="#baa1cf" stroke-width="1.51"/><path d="M536,554L446,794L700,710Z" fill="#dabec3" stroke="#dabec3" stroke-width="1.51"/><path d="M457,1054L188,1212L546,1320Z" fill="#c5a6c6" stroke="#c5a6c6" stroke-width="1.51"/><path d="M1451,526L1236,454L1235,787Z" fill="#af94cd" stroke="#af94cd" stroke-width="1.51"/><path d="M1790,1472L1786,1318L1544,1265Z" fill="#4c44ca" stroke="#4c44ca" stroke-width="1.51"/><path d="M1790,1472L1544,1265L1460,1537Z" fill="#4f45cc" stroke="#4f45cc" stroke-width="1.51"/><path d="M1190,1832L1459,1795L1195,1520Z" fill="#544bcc" stroke="#544bcc" stroke-width="1.51"/><path d="M1747,541L1451,526L1540,771Z" fill="#9c7ac6" stroke="#9c7ac6" stroke-width="1.51"/><path d="M1540,771L1451,526L1235,787Z" fill="#a086d0" stroke="#a086d0" stroke-width="1.51"/><path d="M1743,998L1734,794L1544,978Z" fill="#7866d3" stroke="#7866d3" stroke-width="1.51"/><path d="M2008,776L1734,794L1743,998Z" fill="#7e73ca" stroke="#7e73ca" stroke-width="1.51"/><path d="M1783,1831L1790,1472L1460,1537Z" fill="#2c2fc3" stroke="#2c2fc3" stroke-width="1.51"/><path d="M763,526L536,554L700,710Z" fill="#dabec4" stroke="#dabec4" stroke-width="1.51"/><path d="M551,200L536,554L763,526Z" fill="#e6c7b7" stroke="#e6c7b7" stroke-width="1.51"/><path d="M741,1713L797,1958L951,1724Z" fill="#8171c9" stroke="#8171c9" stroke-width="1.51"/><path d="M442,1517L434,1704L707,1561Z" fill="#a17dc1" stroke="#a17dc1" stroke-width="1.51"/><path d="M178,1459L434,1704L442,1517Z" fill="#b086b9" stroke="#b086b9" stroke-width="1.51"/><path d="M468,1956L797,1958L741,1713Z" fill="#8f7fbe" stroke="#8f7fbe" stroke-width="1.51"/><path d="M1190,1832L1467,1974L1459,1795Z" fill="#5052c3" stroke="#5052c3" stroke-width="1.51"/><path d="M1024,2051L1198,2005L1190,1832Z" fill="#666fc7" stroke="#666fc7" stroke-width="1.51"/><path d="M446,794L209,1065L457,1054Z" fill="#d4bac8" stroke="#d4bac8" stroke-width="1.51"/><path d="M228,704L209,1065L446,794Z" fill="#dfc1be" stroke="#dfc1be" stroke-width="1.51"/><path d="M209,1065L188,1212L457,1054Z" fill="#ceafc2" stroke="#ceafc2" stroke-width="1.51"/><path d="M797,1958L1024,2051L951,1724Z" fill="#7879ca" stroke="#7879ca" stroke-width="1.51"/><path d="M1045,451L745,213L763,526Z" fill="#dabec3" stroke="#dabec3" stroke-width="1.51"/><path d="M1236,454L1065,273L1045,451Z" fill="#caadc8" stroke="#caadc8" stroke-width="1.51"/><path d="M1306,214L1065,273L1236,454Z" fill="#caa9c1" stroke="#caa9c1" stroke-width="1.51"/><path d="M1198,2005L1467,1974L1190,1832Z" fill="#5a60c4" stroke="#5a60c4" stroke-width="1.51"/><path d="M1459,1795L1783,1831L1460,1537Z" fill="#3233c3" stroke="#3233c3" stroke-width="1.51"/><path d="M1205,2318L1467,1974L1198,2005Z" fill="#5b6fbd" stroke="#5b6fbd" stroke-width="1.51"/><path d="M1786,1318L1963,1044L1743,998Z" fill="#6664cd" stroke="#6664cd" stroke-width="1.51"/><path d="M2011,1297L1963,1044L1786,1318Z" fill="#5f64c6" stroke="#5f64c6" stroke-width="1.51"/><path d="M1734,794L1747,541L1540,771Z" fill="#8d6fc8" stroke="#8d6fc8" stroke-width="1.51"/><path d="M1495,272L1306,214L1236,454Z" fill="#c19bbe" stroke="#c19bbe" stroke-width="1.51"/><path d="M2008,776L1747,541L1734,794Z" fill="#8c79c2" stroke="#8c79c2" stroke-width="1.51"/><path d="M188,1212L178,1459L442,1517Z" fill="#ba92bb" stroke="#ba92bb" stroke-width="1.51"/><path d="M209,1065L17,1257L188,1212Z" fill="#b593bf" stroke="#b593bf" stroke-width="1.51"/><path d="M536,554L228,704L446,794Z" fill="#e4c5ba" stroke="#e4c5ba" stroke-width="1.51"/><path d="M298,477L228,704L536,554Z" fill="#edccb1" stroke="#edccb1" stroke-width="1.51"/><path d="M1981,1543L2011,1297L1790,1472Z" fill="#4c53bf" stroke="#4c53bf" stroke-width="1.51"/><path d="M1790,1472L2011,1297L1786,1318Z" fill="#5153c4" stroke="#5153c4" stroke-width="1.51"/><path d="M1467,1974L1783,1831L1459,1795Z" fill="#3b42bd" stroke="#3b42bd" stroke-width="1.51"/><path d="M1495,272L1236,454L1451,526Z" fill="#b693c1" stroke="#b693c1" stroke-width="1.51"/><path d="M434,1704L468,1956L741,1713Z" fill="#997bbc" stroke="#997bbc" stroke-width="1.51"/><path d="M797,1958L968,2202L1024,2051Z" fill="#7888c4" stroke="#7888c4" stroke-width="1.51"/><path d="M221,1815L468,1956L434,1704Z" fill="#a586b1" stroke="#a586b1" stroke-width="1.51"/><path d="M1783,1831L1981,1543L1790,1472Z" fill="#353dbc" stroke="#353dbc" stroke-width="1.51"/><path d="M1747,541L1495,272L1451,526Z" fill="#a982be" stroke="#a982be" stroke-width="1.51"/><path d="M1065,273L745,213L1045,451Z" fill="#d9bec4" stroke="#d9bec4" stroke-width="1.51"/><path d="M954,25L745,213L1065,273Z" fill="#caacc0" stroke="#caacc0" stroke-width="1.51"/><path d="M1747,541L1791,247L1495,272Z" fill="#a87bb6" stroke="#a87bb6" stroke-width="1.51"/><path d="M1963,1044L2008,776L1743,998Z" fill="#7777ca" stroke="#7777ca" stroke-width="1.51"/><path d="M2265,991L2008,776L1963,1044Z" fill="#7788c3" stroke="#7788c3" stroke-width="1.51"/><path d="M551,200L298,477L536,554Z" fill="#f0cfad" stroke="#f0cfad" stroke-width="1.51"/><path d="M1024,2051L1205,2318L1198,2005Z" fill="#677ec0" stroke="#677ec0" stroke-width="1.51"/><path d="M1467,1974L1740,2044L1783,1831Z" fill="#3443b7" stroke="#3443b7" stroke-width="1.51"/><path d="M738,2294L968,2202L797,1958Z" fill="#8093bb" stroke="#8093bb" stroke-width="1.51"/><path d="M178,1459L221,1815L434,1704Z" fill="#aa7cb4" stroke="#aa7cb4" stroke-width="1.51"/><path d="M188,1212L17,1257L178,1459Z" fill="#ab86bb" stroke="#ab86bb" stroke-width="1.51"/><path d="M-32,959L17,1257L209,1065Z" fill="#b090c0" stroke="#b090c0" stroke-width="1.51"/><path d="M-32,959L209,1065L-3,777Z" fill="#ba9abf" stroke="#ba9abf" stroke-width="1.51"/><path d="M41,1785L221,1815L178,1459Z" fill="#9566b1" stroke="#9566b1" stroke-width="1.51"/><path d="M710,-78L551,200L745,213Z" fill="#d1adb2" stroke="#d1adb2" stroke-width="1.51"/><path d="M745,213L551,200L763,526Z" fill="#e9c9b5" stroke="#e9c9b5" stroke-width="1.51"/><path d="M1522,2320L1740,2044L1467,1974Z" fill="#4359b4" stroke="#4359b4" stroke-width="1.51"/><path d="M1783,1831L2061,1819L1981,1543Z" fill="#3042b6" stroke="#3042b6" stroke-width="1.51"/><path d="M-3,777L209,1065L228,704Z" fill="#cbabbc" stroke="#cbabbc" stroke-width="1.51"/><path d="M-36,449L228,704L298,477Z" fill="#e0bbab" stroke="#e0bbab" stroke-width="1.51"/><path d="M-36,449L-3,777L228,704Z" fill="#cda7b0" stroke="#cda7b0" stroke-width="1.51"/><path d="M2011,1297L2204,1233L1963,1044Z" fill="#6374c2" stroke="#6374c2" stroke-width="1.51"/><path d="M2280,1496L2204,1233L2011,1297Z" fill="#5871b9" stroke="#5871b9" stroke-width="1.51"/><path d="M2280,1496L2011,1297L1981,1543Z" fill="#4f61b8" stroke="#4f61b8" stroke-width="1.51"/><path d="M221,1815L226,1952L468,1956Z" fill="#a991aa" stroke="#a991aa" stroke-width="1.51"/><path d="M551,2267L738,2294L797,1958Z" fill="#8b9ab3" stroke="#8b9ab3" stroke-width="1.51"/><path d="M41,1785L226,1952L221,1815Z" fill="#9777aa" stroke="#9777aa" stroke-width="1.51"/><path d="M1193,-14L954,25L1065,273Z" fill="#b697c1" stroke="#b697c1" stroke-width="1.51"/><path d="M1193,-14L1065,273L1306,214Z" fill="#b795bf" stroke="#b795bf" stroke-width="1.51"/><path d="M738,2294L1205,2318L968,2202Z" fill="#7298bd" stroke="#7298bd" stroke-width="1.51"/><path d="M968,2202L1205,2318L1024,2051Z" fill="#6c8ac0" stroke="#6c8ac0" stroke-width="1.51"/><path d="M2008,776L2013,496L1747,541Z" fill="#9586b9" stroke="#9586b9" stroke-width="1.51"/><path d="M1557,-19L1193,-14L1306,214Z" fill="#9e78b9" stroke="#9e78b9" stroke-width="1.51"/><path d="M2294,691L2013,496L2008,776Z" fill="#8f96b4" stroke="#8f96b4" stroke-width="1.51"/><path d="M551,2267L797,1958L468,1956Z" fill="#9394b4" stroke="#9394b4" stroke-width="1.51"/><path d="M17,1257L-61,1500L178,1459Z" fill="#9871b7" stroke="#9871b7" stroke-width="1.51"/><path d="M-258,1322L-61,1500L17,1257Z" fill="#8561b5" stroke="#8561b5" stroke-width="1.51"/><path d="M2013,496L1791,247L1747,541Z" fill="#a186b3" stroke="#a186b3" stroke-width="1.51"/><path d="M1557,-19L1306,214L1495,272Z" fill="#a67db7" stroke="#a67db7" stroke-width="1.51"/><path d="M2041,1976L2061,1819L1783,1831Z" fill="#3851af" stroke="#3851af" stroke-width="1.51"/><path d="M-61,1500L41,1785L178,1459Z" fill="#8d63b2" stroke="#8d63b2" stroke-width="1.51"/><path d="M224,2319L468,1956L226,1952Z" fill="#a8a1a3" stroke="#a8a1a3" stroke-width="1.51"/><path d="M224,2319L551,2267L468,1956Z" fill="#9fa7a4" stroke="#9fa7a4" stroke-width="1.51"/><path d="M2204,1233L2265,991L1963,1044Z" fill="#6a84c1" stroke="#6a84c1" stroke-width="1.51"/><path d="M2280,1496L2265,991L2204,1233Z" fill="#6081b8" stroke="#6081b8" stroke-width="1.51"/><path d="M1740,2044L2041,1976L1783,1831Z" fill="#364eb1" stroke="#364eb1" stroke-width="1.51"/><path d="M1205,2318L1522,2320L1467,1974Z" fill="#546fb6" stroke="#546fb6" stroke-width="1.51"/><path d="M2265,1745L2280,1496L1981,1543Z" fill="#435db1" stroke="#435db1" stroke-width="1.51"/><path d="M1522,2320L1751,2228L1740,2044Z" fill="#3c59ae" stroke="#3c59ae" stroke-width="1.51"/><path d="M2061,1819L2265,1745L1981,1543Z" fill="#364eb0" stroke="#364eb0" stroke-width="1.51"/><path d="M2015,2279L2041,1976L1740,2044Z" fill="#3b62a8" stroke="#3b62a8" stroke-width="1.51"/><path d="M1713,-10L1557,-19L1495,272Z" fill="#9266b2" stroke="#9266b2" stroke-width="1.51"/><path d="M1713,-10L1495,272L1791,247Z" fill="#9a6cb1" stroke="#9a6cb1" stroke-width="1.51"/><path d="M954,25L710,-78L745,213Z" fill="#c29fb8" stroke="#c29fb8" stroke-width="1.51"/><path d="M551,200L180,210L298,477Z" fill="#fcd8a0" stroke="#fcd8a0" stroke-width="1.51"/><path d="M1066,-218L710,-78L954,25Z" fill="#a686bc" stroke="#a686bc" stroke-width="1.51"/><path d="M1066,-218L954,25L1193,-14Z" fill="#9e7fbe" stroke="#9e7fbe" stroke-width="1.51"/><path d="M222,-58L180,210L551,200Z" fill="#e7be9e" stroke="#e7be9e" stroke-width="1.51"/><path d="M180,210L-36,449L298,477Z" fill="#e7c0a2" stroke="#e7c0a2" stroke-width="1.51"/><path d="M-339,1055L17,1257L-32,959Z" fill="#9576bd" stroke="#9576bd" stroke-width="1.51"/><path d="M-339,1055L-258,1322L17,1257Z" fill="#8060b8" stroke="#8060b8" stroke-width="1.51"/><path d="M1990,-67L1713,-10L1791,247Z" fill="#8766aa" stroke="#8766aa" stroke-width="1.51"/><path d="M2265,991L2294,691L2008,776Z" fill="#8197b8" stroke="#8197b8" stroke-width="1.51"/><path d="M2280,1496L2294,691L2265,991Z" fill="#6c93bc" stroke="#6c93bc" stroke-width="1.51"/><path d="M-61,1500L-273,1698L41,1785Z" fill="#7046ac" stroke="#7046ac" stroke-width="1.51"/><path d="M-233,740L-32,959L-3,777Z" fill="#ac89b7" stroke="#ac89b7" stroke-width="1.51"/><path d="M2278,1981L2265,1745L2061,1819Z" fill="#3c64a7" stroke="#3c64a7" stroke-width="1.51"/><path d="M1309,-215L1066,-218L1193,-14Z" fill="#8969b9" stroke="#8969b9" stroke-width="1.51"/><path d="M2035,226L1791,247L2013,496Z" fill="#a894a9" stroke="#a894a9" stroke-width="1.51"/><path d="M2246,456L2035,226L2013,496Z" fill="#a2a0a6" stroke="#a2a0a6" stroke-width="1.51"/><path d="M710,-78L532,-85L551,200Z" fill="#c9a2ad" stroke="#c9a2ad" stroke-width="1.51"/><path d="M-36,449L-233,740L-3,777Z" fill="#b790ae" stroke="#b790ae" stroke-width="1.51"/><path d="M41,1785L9,2044L226,1952Z" fill="#8d75a6" stroke="#8d75a6" stroke-width="1.51"/><path d="M-312,2034L9,2044L41,1785Z" fill="#725ea2" stroke="#725ea2" stroke-width="1.51"/><path d="M2294,691L2246,456L2013,496Z" fill="#96a2ab" stroke="#96a2ab" stroke-width="1.51"/><path d="M710,-78L704,-219L532,-85Z" fill="#b28bad" stroke="#b28bad" stroke-width="1.51"/><path d="M1309,-215L1193,-14L1557,-19Z" fill="#8864b6" stroke="#8864b6" stroke-width="1.51"/><path d="M1532,-256L1309,-215L1557,-19Z" fill="#734fb1" stroke="#734fb1" stroke-width="1.51"/><path d="M-233,740L-339,1055L-32,959Z" fill="#9475ba" stroke="#9475ba" stroke-width="1.51"/><path d="M9,2044L224,2319L226,1952Z" fill="#948e9f" stroke="#948e9f" stroke-width="1.51"/><path d="M551,2267L224,2319L738,2294Z" fill="#97aea3" stroke="#97aea3" stroke-width="1.51"/><path d="M738,2294L224,2319L1205,2318Z" fill="#87a6ae" stroke="#87a6ae" stroke-width="1.51"/><path d="M1205,2318L224,2319L1522,2320Z" fill="#709cbb" stroke="#709cbb" stroke-width="1.51"/><path d="M1066,-218L704,-219L710,-78Z" fill="#9f7db6" stroke="#9f7db6" stroke-width="1.51"/><path d="M-258,1322L-317,1561L-61,1500Z" fill="#6a48b0" stroke="#6a48b0" stroke-width="1.51"/><path d="M-339,1055L-317,1561L-258,1322Z" fill="#6549b2" stroke="#6549b2" stroke-width="1.51"/><path d="M-317,1561L-273,1698L-61,1500Z" fill="#603dac" stroke="#603dac" stroke-width="1.51"/><path d="M9,2044L28,2260L224,2319Z" fill="#8a8f9a" stroke="#8a8f9a" stroke-width="1.51"/><path d="M-36,449L-323,441L-233,740Z" fill="#af85a7" stroke="#af85a7" stroke-width="1.51"/><path d="M-233,740L-323,441L-339,1055Z" fill="#936eb0" stroke="#936eb0" stroke-width="1.51"/><path d="M180,210L-79,274L-36,449Z" fill="#daaf9d" stroke="#daaf9d" stroke-width="1.51"/><path d="M-66,-14L-79,274L180,210Z" fill="#c7989b" stroke="#c7989b" stroke-width="1.51"/><path d="M222,-58L551,200L532,-85Z" fill="#d3a9a4" stroke="#d3a9a4" stroke-width="1.51"/><path d="M2041,1976L2278,1981L2061,1819Z" fill="#3b64a7" stroke="#3b64a7" stroke-width="1.51"/><path d="M2265,1745L2278,1981L2280,1496Z" fill="#3b60a8" stroke="#3b60a8" stroke-width="1.51"/><path d="M2280,1496L2338,43L2294,691Z" fill="#85a5b0" stroke="#85a5b0" stroke-width="1.51"/><path d="M2249,2275L2278,1981L2041,1976Z" fill="#3a779f" stroke="#3a779f" stroke-width="1.51"/><path d="M1522,2320L2015,2279L1751,2228Z" fill="#3c63a8" stroke="#3c63a8" stroke-width="1.51"/><path d="M1751,2228L2015,2279L1740,2044Z" fill="#3b61a8" stroke="#3b61a8" stroke-width="1.51"/><path d="M481,-305L222,-58L532,-85Z" fill="#be91a1" stroke="#be91a1" stroke-width="1.51"/><path d="M2338,43L2207,216L2246,456Z" fill="#9daa99" stroke="#9daa99" stroke-width="1.51"/><path d="M2246,456L2207,216L2035,226Z" fill="#a7aa9f" stroke="#a7aa9f" stroke-width="1.51"/><path d="M2035,226L1990,-67L1791,247Z" fill="#937ca6" stroke="#937ca6" stroke-width="1.51"/><path d="M1713,-10L1532,-256L1557,-19Z" fill="#744cae" stroke="#744cae" stroke-width="1.51"/><path d="M1822,-231L1532,-256L1713,-10Z" fill="#613baa" stroke="#613baa" stroke-width="1.51"/><path d="M1309,-215L1532,-256L1066,-218Z" fill="#7454b4" stroke="#7454b4" stroke-width="1.51"/><path d="M1066,-218L481,-305L704,-219Z" fill="#9a75b1" stroke="#9a75b1" stroke-width="1.51"/><path d="M-316,2214L28,2260L9,2044Z" fill="#717399" stroke="#717399" stroke-width="1.51"/><path d="M2207,216L1990,-67L2035,226Z" fill="#9188a0" stroke="#9188a0" stroke-width="1.51"/><path d="M-270,182L-323,441L-79,274Z" fill="#bb8b9a" stroke="#bb8b9a" stroke-width="1.51"/><path d="M-79,274L-323,441L-36,449Z" fill="#c093a0" stroke="#c093a0" stroke-width="1.51"/><path d="M222,-58L-66,-14L180,210Z" fill="#c6979b" stroke="#c6979b" stroke-width="1.51"/><path d="M704,-219L481,-305L532,-85Z" fill="#ac83a9" stroke="#ac83a9" stroke-width="1.51"/><path d="M1532,-256L481,-305L1066,-218Z" fill="#8268bc" stroke="#8268bc" stroke-width="1.51"/><path d="M1990,-67L1822,-231L1713,-10Z" fill="#6e52a6" stroke="#6e52a6" stroke-width="1.51"/><path d="M2015,2279L2249,2275L2041,1976Z" fill="#3a779e" stroke="#3a779e" stroke-width="1.51"/><path d="M1522,2320L2249,2275L2015,2279Z" fill="#3b72a1" stroke="#3b72a1" stroke-width="1.51"/><path d="M-316,2214L-312,2034L-317,1561Z" fill="#4a3f9e" stroke="#4a3f9e" stroke-width="1.51"/><path d="M-317,1561L-312,2034L-273,1698Z" fill="#472fa4" stroke="#472fa4" stroke-width="1.51"/><path d="M-273,1698L-312,2034L41,1785Z" fill="#6147a4" stroke="#6147a4" stroke-width="1.51"/><path d="M-78,-309L-66,-14L222,-58Z" fill="#a27198" stroke="#a27198" stroke-width="1.51"/><path d="M-66,-14L-270,182L-79,274Z" fill="#b18199" stroke="#b18199" stroke-width="1.51"/><path d="M2207,216L2338,43L1990,-67Z" fill="#87899b" stroke="#87899b" stroke-width="1.51"/><path d="M1990,-67L2087,-289L1822,-231Z" fill="#60519f" stroke="#60519f" stroke-width="1.51"/><path d="M2294,691L2338,43L2246,456Z" fill="#9eb29e" stroke="#9eb29e" stroke-width="1.51"/><path d="M2278,1981L2338,43L2280,1496Z" fill="#648bb8" stroke="#648bb8" stroke-width="1.51"/><path d="M-66,-14L-318,-59L-270,182Z" fill="#986597" stroke="#986597" stroke-width="1.51"/><path d="M481,-305L239,-334L222,-58Z" fill="#b9899b" stroke="#b9899b" stroke-width="1.51"/><path d="M2087,-289L239,-334L481,-305Z" fill="#8265b8" stroke="#8265b8" stroke-width="1.51"/><path d="M-312,2034L-316,2214L9,2044Z" fill="#5f5c9a" stroke="#5f5c9a" stroke-width="1.51"/><path d="M28,2260L-316,2214L224,2319Z" fill="#7a8596" stroke="#7a8596" stroke-width="1.51"/><path d="M-339,1055L-316,2214L-317,1561Z" fill="#472ca9" stroke="#472ca9" stroke-width="1.51"/><path d="M1532,-256L2087,-289L481,-305Z" fill="#6547b1" stroke="#6547b1" stroke-width="1.51"/><path d="M1822,-231L2087,-289L1532,-256Z" fill="#523aa3" stroke="#523aa3" stroke-width="1.51"/><path d="M2263,-255L2087,-289L1990,-67Z" fill="#605e99" stroke="#605e99" stroke-width="1.51"/><path d="M-78,-309L-318,-59L-66,-14Z" fill="#8a5795" stroke="#8a5795" stroke-width="1.51"/><path d="M-270,182L-318,-59L-323,441Z" fill="#a16f98" stroke="#a16f98" stroke-width="1.51"/><path d="M-323,441L-318,-59L-339,1055Z" fill="#a175a2" stroke="#a175a2" stroke-width="1.51"/><path d="M2338,43L2263,-255L1990,-67Z" fill="#717598" stroke="#717598" stroke-width="1.51"/><path d="M239,-334L-78,-309L222,-58Z" fill="#a27098" stroke="#a27098" stroke-width="1.51"/><path d="M239,-334L-276,-307L-78,-309Z" fill="#7f4d94" stroke="#7f4d94" stroke-width="1.51"/><path d="M-78,-309L-276,-307L-318,-59Z" fill="#714092" stroke="#714092" stroke-width="1.51"/></svg>