<svg xmlns="http://www.w3.org/2000/svg" width="2000" height="2000"><path d="M810,1004L1133,499L616,630Z" fill="#182120" stroke="#182120" stroke-width="1.51"/><path d="M810,1004L1420,722L1133,499Z" fill="#201f1b" stroke="#201f1b" stroke-width="1.51"/><path d="M1133,499L586,238L616,630Z" fill="#1a2a2c" stroke="#1a2a2c" stroke-width="1.51"/><path d="M616,630L281,604L810,1004Z" fill="#192829" stroke="#192829" stroke-width="1.51"/><path d="M586,238L281,604L616,630Z" fill="#1b3135" stroke="#1b3135" stroke-width="1.51"/><path d="M586,238L213,201L281,604Z" fill="#1c393f" stroke="#1c393f" stroke-width="1.51"/><path d="M1133,499L685,35L586,238Z" fill="#1b2f32" stroke="#1b2f32" stroke-width="1.51"/><path d="M1209,32L685,35L1133,499Z" fill="#1b2c2e" stroke="#1b2c2e" stroke-width="1.51"/><path d="M810,1004L1521,1127L1420,722Z" fill="#271b15" stroke="#271b15" stroke-width="1.51"/><path d="M1720,198L1209,32L1133,499Z" fill="#3b2f2e" stroke="#3b2f2e" stroke-width="1.51"/><path d="M810,1004L1233,1404L1521,1127Z" fill="#2f1a14" stroke="#2f1a14" stroke-width="1.51"/><path d="M954,1577L1233,1404L810,1004Z" fill="#2d1a14" stroke="#2d1a14" stroke-width="1.51"/><path d="M1420,722L1720,198L1133,499Z" fill="#3d2927" stroke="#3d2927" stroke-width="1.51"/><path d="M1521,1127L1681,818L1420,722Z" fill="#3e1f19" stroke="#3e1f19" stroke-width="1.51"/><path d="M203,1356L954,1577L810,1004Z" fill="#31231f" stroke="#31231f" stroke-width="1.51"/><path d="M223,116L213,201L586,238Z" fill="#1c3e47" stroke="#1c3e47" stroke-width="1.51"/><path d="M213,201L78,400L281,604Z" fill="#1c3c44" stroke="#1c3c44" stroke-width="1.51"/><path d="M281,604L203,1356L810,1004Z" fill="#182626" stroke="#182626" stroke-width="1.51"/><path d="M213,201L-279,29L78,400Z" fill="#1d414a" stroke="#1d414a" stroke-width="1.51"/><path d="M685,35L223,116L586,238Z" fill="#1c3b43" stroke="#1c3b43" stroke-width="1.51"/><path d="M-169,720L203,1356L281,604Z" fill="#1b3034" stroke="#1b3034" stroke-width="1.51"/><path d="M1681,818L1720,198L1420,722Z" fill="#4a2824" stroke="#4a2824" stroke-width="1.51"/><path d="M1720,198L1754,88L1209,32Z" fill="#4f3534" stroke="#4f3534" stroke-width="1.51"/><path d="M2048,321L1754,88L1720,198Z" fill="#653633" stroke="#653633" stroke-width="1.51"/><path d="M203,1356L180,1491L954,1577Z" fill="#422b28" stroke="#422b28" stroke-width="1.51"/><path d="M-264,1139L180,1491L203,1356Z" fill="#3a3130" stroke="#3a3130" stroke-width="1.51"/><path d="M78,400L-169,720L281,604Z" fill="#1c383e" stroke="#1c383e" stroke-width="1.51"/><path d="M-576,436L-169,720L78,400Z" fill="#1d3237" stroke="#1d3237" stroke-width="1.51"/><path d="M954,1577L1334,1730L1233,1404Z" fill="#4b1c16" stroke="#4b1c16" stroke-width="1.51"/><path d="M1233,1404L1596,1683L1521,1127Z" fill="#531d17" stroke="#531d17" stroke-width="1.51"/><path d="M2262,1219L2187,851L1681,818Z" fill="#50241d" stroke="#50241d" stroke-width="1.51"/><path d="M1156,1944L1334,1730L954,1577Z" fill="#561c17" stroke="#561c17" stroke-width="1.51"/><path d="M685,35L227,-424L223,116Z" fill="#1d3940" stroke="#1d3940" stroke-width="1.51"/><path d="M1209,32L704,-426L685,35Z" fill="#1b2b2e" stroke="#1b2b2e" stroke-width="1.51"/><path d="M1310,-680L704,-426L1209,32Z" fill="#202222" stroke="#202222" stroke-width="1.51"/><path d="M1334,1730L1596,1683L1233,1404Z" fill="#5d1c17" stroke="#5d1c17" stroke-width="1.51"/><path d="M1681,818L2048,321L1720,198Z" fill="#5d2e2a" stroke="#5d2e2a" stroke-width="1.51"/><path d="M2187,851L2048,321L1681,818Z" fill="#5a2b26" stroke="#5a2b26" stroke-width="1.51"/><path d="M180,1491L619,1885L954,1577Z" fill="#4d2924" stroke="#4d2924" stroke-width="1.51"/><path d="M1334,1730L1780,2179L1596,1683Z" fill="#80161a" stroke="#80161a" stroke-width="1.51"/><path d="M-169,720L-264,1139L203,1356Z" fill="#222a2a" stroke="#222a2a" stroke-width="1.51"/><path d="M180,1491L43,1674L619,1885Z" fill="#56322f" stroke="#56322f" stroke-width="1.51"/><path d="M619,1885L1156,1944L954,1577Z" fill="#51201a" stroke="#51201a" stroke-width="1.51"/><path d="M2262,1219L1681,818L1521,1127Z" fill="#551d17" stroke="#551d17" stroke-width="1.51"/><path d="M-264,1139L43,1674L180,1491Z" fill="#42302f" stroke="#42302f" stroke-width="1.51"/><path d="M-576,436L-372,947L-169,720Z" fill="#1c292b" stroke="#1c292b" stroke-width="1.51"/><path d="M-169,720L-372,947L-264,1139Z" fill="#1a2527" stroke="#1a2527" stroke-width="1.51"/><path d="M704,-426L227,-424L685,35Z" fill="#1c3034" stroke="#1c3034" stroke-width="1.51"/><path d="M223,116L-279,29L213,201Z" fill="#1c454f" stroke="#1c454f" stroke-width="1.51"/><path d="M-35,-427L-279,29L223,116Z" fill="#1e3d45" stroke="#1e3d45" stroke-width="1.51"/><path d="M2187,851L2325,869L2048,321Z" fill="#51312c" stroke="#51312c" stroke-width="1.51"/><path d="M2262,1219L2325,869L2187,851Z" fill="#482a23" stroke="#482a23" stroke-width="1.51"/><path d="M1995,1738L2262,1219L1521,1127Z" fill="#6f1c1a" stroke="#6f1c1a" stroke-width="1.51"/><path d="M1573,-621L1209,32L1754,88Z" fill="#472d2b" stroke="#472d2b" stroke-width="1.51"/><path d="M1573,-621L1310,-680L1209,32Z" fill="#382422" stroke="#382422" stroke-width="1.51"/><path d="M704,-426L1310,-680L227,-424Z" fill="#1b2425" stroke="#1b2425" stroke-width="1.51"/><path d="M2048,321L2232,52L1754,88Z" fill="#633b3a" stroke="#633b3a" stroke-width="1.51"/><path d="M2680,549L2232,52L2048,321Z" fill="#52403e" stroke="#52403e" stroke-width="1.51"/><path d="M227,-424L-35,-427L223,116Z" fill="#1d3c45" stroke="#1d3c45" stroke-width="1.51"/><path d="M1310,-680L-35,-427L227,-424Z" fill="#1c2b2e" stroke="#1c2b2e" stroke-width="1.51"/><path d="M2275,-630L1573,-621L1754,88Z" fill="#602926" stroke="#602926" stroke-width="1.51"/><path d="M1780,2179L1995,1738L1596,1683Z" fill="#920f1b" stroke="#920f1b" stroke-width="1.51"/><path d="M1596,1683L1995,1738L1521,1127Z" fill="#6f1a19" stroke="#6f1a19" stroke-width="1.51"/><path d="M43,1674L549,2175L619,1885Z" fill="#62302d" stroke="#62302d" stroke-width="1.51"/><path d="M619,1885L826,2366L1156,1944Z" fill="#522722" stroke="#522722" stroke-width="1.51"/><path d="M1156,1944L1780,2179L1334,1730Z" fill="#731d1b" stroke="#731d1b" stroke-width="1.51"/><path d="M-279,29L-576,436L78,400Z" fill="#1d373e" stroke="#1d373e" stroke-width="1.51"/><path d="M-497,-193L-576,436L-279,29Z" fill="#1f363e" stroke="#1f363e" stroke-width="1.51"/><path d="M2714,1764L2419,1146L2262,1219Z" fill="#5d322b" stroke="#5d322b" stroke-width="1.51"/><path d="M2262,1219L2419,1146L2325,869Z" fill="#4a2c25" stroke="#4a2c25" stroke-width="1.51"/><path d="M2325,869L2680,549L2048,321Z" fill="#4b3835" stroke="#4b3835" stroke-width="1.51"/><path d="M549,2175L826,2366L619,1885Z" fill="#53302b" stroke="#53302b" stroke-width="1.51"/><path d="M826,2366L1132,2360L1156,1944Z" fill="#4c2922" stroke="#4c2922" stroke-width="1.51"/><path d="M-372,947L-615,1403L-264,1139Z" fill="#272221" stroke="#272221" stroke-width="1.51"/><path d="M-264,1139L-544,1586L43,1674Z" fill="#422a28" stroke="#422a28" stroke-width="1.51"/><path d="M43,1674L-126,2415L549,2175Z" fill="#603e3c" stroke="#603e3c" stroke-width="1.51"/><path d="M549,2175L257,2734L826,2366Z" fill="#483b38" stroke="#483b38" stroke-width="1.51"/><path d="M-576,436L-615,1403L-372,947Z" fill="#191f1e" stroke="#191f1e" stroke-width="1.51"/><path d="M-35,-427L-497,-193L-279,29Z" fill="#1e343a" stroke="#1e343a" stroke-width="1.51"/><path d="M-615,1403L-544,1586L-264,1139Z" fill="#382320" stroke="#382320" stroke-width="1.51"/><path d="M1132,2360L1780,2179L1156,1944Z" fill="#672722" stroke="#672722" stroke-width="1.51"/><path d="M1995,1738L2714,1764L2262,1219Z" fill="#722e29" stroke="#722e29" stroke-width="1.51"/><path d="M2419,1146L2680,549L2325,869Z" fill="#40332e" stroke="#40332e" stroke-width="1.51"/><path d="M2680,549L2588,-54L2232,52Z" fill="#494849" stroke="#494849" stroke-width="1.51"/><path d="M2232,52L2275,-630L1754,88Z" fill="#5c3734" stroke="#5c3734" stroke-width="1.51"/><path d="M1754,2433L2122,2163L1780,2179Z" fill="#8e2a28" stroke="#8e2a28" stroke-width="1.51"/><path d="M1780,2179L2122,2163L1995,1738Z" fill="#922123" stroke="#922123" stroke-width="1.51"/><path d="M2419,1146L2714,1764L2680,549Z" fill="#45342e" stroke="#45342e" stroke-width="1.51"/><path d="M2588,-54L2275,-630L2232,52Z" fill="#4e3d3b" stroke="#4e3d3b" stroke-width="1.51"/><path d="M1573,-621L2356,-752L1310,-680Z" fill="#51201c" stroke="#51201c" stroke-width="1.51"/><path d="M1132,2360L1754,2433L1780,2179Z" fill="#712e28" stroke="#712e28" stroke-width="1.51"/><path d="M257,2734L1754,2433L1132,2360Z" fill="#40302b" stroke="#40302b" stroke-width="1.51"/><path d="M826,2366L257,2734L1132,2360Z" fill="#423733" stroke="#423733" stroke-width="1.51"/><path d="M-544,1586L-224,2312L43,1674Z" fill="#612d2b" stroke="#612d2b" stroke-width="1.51"/><path d="M-224,2312L-126,2415L43,1674Z" fill="#5b3a38" stroke="#5b3a38" stroke-width="1.51"/><path d="M2588,-54L2356,-752L2275,-630Z" fill="#493634" stroke="#493634" stroke-width="1.51"/><path d="M2275,-630L2356,-752L1573,-621Z" fill="#542823" stroke="#542823" stroke-width="1.51"/><path d="M-497,-193L-737,-517L-576,436Z" fill="#1e2e32" stroke="#1e2e32" stroke-width="1.51"/><path d="M-576,436L-737,-517L-615,1403Z" fill="#1d292c" stroke="#1d292c" stroke-width="1.51"/><path d="M-35,-427L-737,-517L-497,-193Z" fill="#1e2b2f" stroke="#1e2b2f" stroke-width="1.51"/><path d="M1310,-680L-737,-517L-35,-427Z" fill="#1e3339" stroke="#1e3339" stroke-width="1.51"/><path d="M2628,2134L2714,1764L2122,2163Z" fill="#803b34" stroke="#803b34" stroke-width="1.51"/><path d="M2122,2163L2714,1764L1995,1738Z" fill="#8c2c29" stroke="#8c2c29" stroke-width="1.51"/><path d="M-126,2415L257,2734L549,2175Z" fill="#4c4545" stroke="#4c4545" stroke-width="1.51"/><path d="M1754,2433L2283,2349L2122,2163Z" fill="#85352f" stroke="#85352f" stroke-width="1.51"/><path d="M2496,2502L2283,2349L1754,2433Z" fill="#7c3f37" stroke="#7c3f37" stroke-width="1.51"/><path d="M-544,1586L-737,2134L-224,2312Z" fill="#592a27" stroke="#592a27" stroke-width="1.51"/><path d="M-224,2312L-448,2675L-126,2415Z" fill="#483e3d" stroke="#483e3d" stroke-width="1.51"/><path d="M-126,2415L-448,2675L257,2734Z" fill="#414647" stroke="#414647" stroke-width="1.51"/><path d="M-615,1403L-737,2134L-544,1586Z" fill="#4e211e" stroke="#4e211e" stroke-width="1.51"/><path d="M-737,-517L-737,2134L-615,1403Z" fill="#181917" stroke="#181917" stroke-width="1.51"/><path d="M2283,2349L2628,2134L2122,2163Z" fill="#7e3d35" stroke="#7e3d35" stroke-width="1.51"/><path d="M-737,2134L-448,2675L-224,2312Z" fill="#4b3534" stroke="#4b3534" stroke-width="1.51"/><path d="M2283,2349L2496,2502L2628,2134Z" fill="#74453d" stroke="#74453d" stroke-width="1.51"/><path d="M257,2734L2496,2502L1754,2433Z" fill="#64362f" stroke="#64362f" stroke-width="1.51"/></svg>