<svg xmlns="http://www.w3.org/2000/svg" width="2000" height="2000"><path d="M954,893L845,1223L1109,906Z" fill="#45b6c4" stroke="#45b6c4" stroke-width="1.51"/><path d="M845,1223L1221,1224L1109,906Z" fill="#3baec3" stroke="#3baec3" stroke-width="1.51"/><path d="M1221,1224L1369,1200L1109,906Z" fill="#35a6c3" stroke="#35a6c3" stroke-width="1.51"/><path d="M845,1223L867,1448L1221,1224Z" fill="#39a8c3" stroke="#39a8c3" stroke-width="1.51"/><path d="M1221,1224L1175,1475L1369,1200Z" fill="#2c9cc2" stroke="#2c9cc2" stroke-width="1.51"/><path d="M867,1448L1175,1475L1221,1224Z" fill="#30a0c2" stroke="#30a0c2" stroke-width="1.51"/><path d="M954,893L501,1052L845,1223Z" fill="#56bac1" stroke="#56bac1" stroke-width="1.51"/><path d="M845,1223L407,1487L867,1448Z" fill="#53acbf" stroke="#53acbf" stroke-width="1.51"/><path d="M1369,1200L1502,900L1109,906Z" fill="#35a7c3" stroke="#35a7c3" stroke-width="1.51"/><path d="M1219,420L780,574L954,893Z" fill="#63c1c0" stroke="#63c1c0" stroke-width="1.51"/><path d="M954,893L492,834L501,1052Z" fill="#66c2bf" stroke="#66c2bf" stroke-width="1.51"/><path d="M1219,420L954,893L1109,906Z" fill="#57b9c1" stroke="#57b9c1" stroke-width="1.51"/><path d="M780,574L492,834L954,893Z" fill="#6bc4bf" stroke="#6bc4bf" stroke-width="1.51"/><path d="M1369,1200L1691,1160L1502,900Z" fill="#3197be" stroke="#3197be" stroke-width="1.51"/><path d="M1175,1475L1584,1410L1369,1200Z" fill="#2193c0" stroke="#2193c0" stroke-width="1.51"/><path d="M780,574L572,590L492,834Z" fill="#7acabc" stroke="#7acabc" stroke-width="1.51"/><path d="M1584,1410L1691,1160L1369,1200Z" fill="#298ebd" stroke="#298ebd" stroke-width="1.51"/><path d="M867,1448L923,1782L1175,1475Z" fill="#3799bd" stroke="#3799bd" stroke-width="1.51"/><path d="M1175,1475L1526,1774L1584,1410Z" fill="#2085bb" stroke="#2085bb" stroke-width="1.51"/><path d="M613,1820L923,1782L867,1448Z" fill="#4b96b8" stroke="#4b96b8" stroke-width="1.51"/><path d="M1502,900L1219,420L1109,906Z" fill="#52b0c0" stroke="#52b0c0" stroke-width="1.51"/><path d="M780,574L589,313L572,590Z" fill="#87cfbb" stroke="#87cfbb" stroke-width="1.51"/><path d="M1530,401L1219,420L1502,900Z" fill="#5eaebe" stroke="#5eaebe" stroke-width="1.51"/><path d="M501,1052L407,1487L845,1223Z" fill="#60b6bf" stroke="#60b6bf" stroke-width="1.51"/><path d="M256,1132L407,1487L501,1052Z" fill="#78bebd" stroke="#78bebd" stroke-width="1.51"/><path d="M146,814L256,1132L492,834Z" fill="#8acebc" stroke="#8acebc" stroke-width="1.51"/><path d="M492,834L256,1132L501,1052Z" fill="#79c7be" stroke="#79c7be" stroke-width="1.51"/><path d="M1691,1160L1766,894L1502,900Z" fill="#3893bb" stroke="#3893bb" stroke-width="1.51"/><path d="M923,1782L1079,1897L1175,1475Z" fill="#348bb8" stroke="#348bb8" stroke-width="1.51"/><path d="M767,2072L1079,1897L923,1782Z" fill="#4285b2" stroke="#4285b2" stroke-width="1.51"/><path d="M407,1487L613,1820L867,1448Z" fill="#59a1b9" stroke="#59a1b9" stroke-width="1.51"/><path d="M1079,1897L1526,1774L1175,1475Z" fill="#2b83b8" stroke="#2b83b8" stroke-width="1.51"/><path d="M1584,1410L1806,1415L1691,1160Z" fill="#2781b8" stroke="#2781b8" stroke-width="1.51"/><path d="M1691,1160L2062,1149L1766,894Z" fill="#3684b5" stroke="#3684b5" stroke-width="1.51"/><path d="M1817,1736L1806,1415L1584,1410Z" fill="#2373b3" stroke="#2373b3" stroke-width="1.51"/><path d="M1766,894L1530,401L1502,900Z" fill="#519dba" stroke="#519dba" stroke-width="1.51"/><path d="M261,428L146,814L492,834Z" fill="#97d5ba" stroke="#97d5ba" stroke-width="1.51"/><path d="M844,207L589,313L780,574Z" fill="#8ed1bb" stroke="#8ed1bb" stroke-width="1.51"/><path d="M844,207L780,574L1219,420Z" fill="#7fcabe" stroke="#7fcabe" stroke-width="1.51"/><path d="M1214,182L844,207L1219,420Z" fill="#87c8bd" stroke="#87c8bd" stroke-width="1.51"/><path d="M261,428L492,834L572,590Z" fill="#8ed2ba" stroke="#8ed2ba" stroke-width="1.51"/><path d="M1530,401L1214,182L1219,420Z" fill="#7bbbbd" stroke="#7bbbbd" stroke-width="1.51"/><path d="M1079,1897L1214,2044L1526,1774Z" fill="#2e77b2" stroke="#2e77b2" stroke-width="1.51"/><path d="M767,2072L1214,2044L1079,1897Z" fill="#3b7db1" stroke="#3b7db1" stroke-width="1.51"/><path d="M407,1487L126,1803L613,1820Z" fill="#73a1b4" stroke="#73a1b4" stroke-width="1.51"/><path d="M-14,1397L134,1580L407,1487Z" fill="#87b6b9" stroke="#87b6b9" stroke-width="1.51"/><path d="M-14,1397L407,1487L256,1132Z" fill="#86bebc" stroke="#86bebc" stroke-width="1.51"/><path d="M613,1820L767,2072L923,1782Z" fill="#4f8ab2" stroke="#4f8ab2" stroke-width="1.51"/><path d="M422,2085L767,2072L613,1820Z" fill="#5c89ae" stroke="#5c89ae" stroke-width="1.51"/><path d="M589,313L261,428L572,590Z" fill="#9bd7b9" stroke="#9bd7b9" stroke-width="1.51"/><path d="M228,97L261,428L589,313Z" fill="#b3e1b7" stroke="#b3e1b7" stroke-width="1.51"/><path d="M1526,1774L1817,1736L1584,1410Z" fill="#2372b1" stroke="#2372b1" stroke-width="1.51"/><path d="M1794,2049L1817,1736L1526,1774Z" fill="#2460a9" stroke="#2460a9" stroke-width="1.51"/><path d="M1806,1415L2062,1149L1691,1160Z" fill="#2e7bb4" stroke="#2e7bb4" stroke-width="1.51"/><path d="M1766,894L1869,473L1530,401Z" fill="#5c99b5" stroke="#5c99b5" stroke-width="1.51"/><path d="M2053,1366L2062,1149L1806,1415Z" fill="#2d72b0" stroke="#2d72b0" stroke-width="1.51"/><path d="M1530,401L1487,146L1214,182Z" fill="#82babb" stroke="#82babb" stroke-width="1.51"/><path d="M2147,916L1869,473L1766,894Z" fill="#5089b1" stroke="#5089b1" stroke-width="1.51"/><path d="M1775,318L1487,146L1530,401Z" fill="#7dacb6" stroke="#7dacb6" stroke-width="1.51"/><path d="M1214,182L1084,-34L844,207Z" fill="#93cfbc" stroke="#93cfbc" stroke-width="1.51"/><path d="M-133,1230L-14,1397L256,1132Z" fill="#93c5bc" stroke="#93c5bc" stroke-width="1.51"/><path d="M1817,1736L2053,1366L1806,1415Z" fill="#256baf" stroke="#256baf" stroke-width="1.51"/><path d="M1869,473L1775,318L1530,401Z" fill="#729fb4" stroke="#729fb4" stroke-width="1.51"/><path d="M1235,2458L1369,2144L1214,2044Z" fill="#3267aa" stroke="#3267aa" stroke-width="1.51"/><path d="M1214,2044L1369,2144L1526,1774Z" fill="#2a6fb0" stroke="#2a6fb0" stroke-width="1.51"/><path d="M625,-195L228,97L589,313Z" fill="#b6e1b6" stroke="#b6e1b6" stroke-width="1.51"/><path d="M1424,-202L1084,-34L1214,182Z" fill="#97c7bb" stroke="#97c7bb" stroke-width="1.51"/><path d="M-119,1781L126,1803L134,1580Z" fill="#8da8b2" stroke="#8da8b2" stroke-width="1.51"/><path d="M134,1580L126,1803L407,1487Z" fill="#83abb5" stroke="#83abb5" stroke-width="1.51"/><path d="M2451,1262L2147,916L2062,1149Z" fill="#3a6eaa" stroke="#3a6eaa" stroke-width="1.51"/><path d="M2062,1149L2147,916L1766,894Z" fill="#3d7fb1" stroke="#3d7fb1" stroke-width="1.51"/><path d="M1869,473L2238,217L1775,318Z" fill="#7793ad" stroke="#7793ad" stroke-width="1.51"/><path d="M146,814L-133,1230L256,1132Z" fill="#95cebc" stroke="#95cebc" stroke-width="1.51"/><path d="M261,428L-81,740L146,814Z" fill="#a7dab8" stroke="#a7dab8" stroke-width="1.51"/><path d="M257,2047L422,2085L613,1820Z" fill="#6e8fad" stroke="#6e8fad" stroke-width="1.51"/><path d="M767,2072L936,2440L1214,2044Z" fill="#4176ad" stroke="#4176ad" stroke-width="1.51"/><path d="M-14,1397L-119,1781L134,1580Z" fill="#90b2b6" stroke="#90b2b6" stroke-width="1.51"/><path d="M-81,740L-133,1230L146,814Z" fill="#a0d5bb" stroke="#a0d5bb" stroke-width="1.51"/><path d="M126,1803L257,2047L613,1820Z" fill="#7797ae" stroke="#7797ae" stroke-width="1.51"/><path d="M1369,2144L1794,2049L1526,1774Z" fill="#2863ab" stroke="#2863ab" stroke-width="1.51"/><path d="M1817,1736L2112,1838L2053,1366Z" fill="#265da8" stroke="#265da8" stroke-width="1.51"/><path d="M261,428L-142,438L-81,740Z" fill="#b4e1b7" stroke="#b4e1b7" stroke-width="1.51"/><path d="M625,-195L589,313L844,207Z" fill="#a6dab8" stroke="#a6dab8" stroke-width="1.51"/><path d="M1084,-34L869,-183L844,207Z" fill="#9fd5bc" stroke="#9fd5bc" stroke-width="1.51"/><path d="M1146,-543L869,-183L1084,-34Z" fill="#a6d5be" stroke="#a6d5be" stroke-width="1.51"/><path d="M1794,2049L2112,1838L1817,1736Z" fill="#2555a4" stroke="#2555a4" stroke-width="1.51"/><path d="M2053,1366L2375,1417L2062,1149Z" fill="#3068ac" stroke="#3068ac" stroke-width="1.51"/><path d="M-425,1499L-119,1781L-14,1397Z" fill="#9bb7b6" stroke="#9bb7b6" stroke-width="1.51"/><path d="M126,1803L-210,2100L257,2047Z" fill="#8b98ac" stroke="#8b98ac" stroke-width="1.51"/><path d="M-81,740L-470,1103L-133,1230Z" fill="#a5d6bd" stroke="#a5d6bd" stroke-width="1.51"/><path d="M-113,322L-142,438L261,428Z" fill="#c1e5b6" stroke="#c1e5b6" stroke-width="1.51"/><path d="M2147,916L2196,471L1869,473Z" fill="#5c84ac" stroke="#5c84ac" stroke-width="1.51"/><path d="M1747,-166L1424,-202L1487,146Z" fill="#94b6b7" stroke="#94b6b7" stroke-width="1.51"/><path d="M1487,146L1424,-202L1214,182Z" fill="#90c0bb" stroke="#90c0bb" stroke-width="1.51"/><path d="M2440,821L2196,471L2147,916Z" fill="#5278a5" stroke="#5278a5" stroke-width="1.51"/><path d="M486,2404L767,2072L422,2085Z" fill="#6280a9" stroke="#6280a9" stroke-width="1.51"/><path d="M486,2404L936,2440L767,2072Z" fill="#5076a2" stroke="#5076a2" stroke-width="1.51"/><path d="M1369,2144L1455,2410L1794,2049Z" fill="#2a59a6" stroke="#2a59a6" stroke-width="1.51"/><path d="M869,-183L625,-195L844,207Z" fill="#a9dbb9" stroke="#a9dbb9" stroke-width="1.51"/><path d="M1747,-166L1487,146L1775,318Z" fill="#8aabb4" stroke="#8aabb4" stroke-width="1.51"/><path d="M781,-433L471,-336L625,-195Z" fill="#bbe3bd" stroke="#bbe3bd" stroke-width="1.51"/><path d="M-357,432L-113,322L-490,78Z" fill="#d7efb9" stroke="#d7efb9" stroke-width="1.51"/><path d="M228,97L-113,322L261,428Z" fill="#c4e7b5" stroke="#c4e7b5" stroke-width="1.51"/><path d="M936,2440L1235,2458L1214,2044Z" fill="#346aa3" stroke="#346aa3" stroke-width="1.51"/><path d="M1794,2049L2149,2066L2112,1838Z" fill="#26499e" stroke="#26499e" stroke-width="1.51"/><path d="M1235,2458L1455,2410L1369,2144Z" fill="#285fa0" stroke="#285fa0" stroke-width="1.51"/><path d="M2112,1838L2375,1417L2053,1366Z" fill="#2a5aa7" stroke="#2a5aa7" stroke-width="1.51"/><path d="M257,2047L486,2404L422,2085Z" fill="#7285a8" stroke="#7285a8" stroke-width="1.51"/><path d="M301,2531L486,2404L257,2047Z" fill="#70809d" stroke="#70809d" stroke-width="1.51"/><path d="M2375,1417L2451,1262L2062,1149Z" fill="#2e64a3" stroke="#2e64a3" stroke-width="1.51"/><path d="M2451,1262L2440,821L2147,916Z" fill="#396ea1" stroke="#396ea1" stroke-width="1.51"/><path d="M2083,-56L1747,-166L1775,318Z" fill="#8c9fae" stroke="#8c9fae" stroke-width="1.51"/><path d="M-357,432L-81,740L-142,438Z" fill="#bfe4b6" stroke="#bfe4b6" stroke-width="1.51"/><path d="M-523,930L-470,1103L-81,740Z" fill="#acdac2" stroke="#acdac2" stroke-width="1.51"/><path d="M-133,1230L-425,1499L-14,1397Z" fill="#9dc4ba" stroke="#9dc4ba" stroke-width="1.51"/><path d="M2112,1838L2526,1679L2375,1417Z" fill="#234f98" stroke="#234f98" stroke-width="1.51"/><path d="M2375,1417L2526,1679L2451,1262Z" fill="#215695" stroke="#215695" stroke-width="1.51"/><path d="M2045,2342L2149,2066L1794,2049Z" fill="#26429a" stroke="#26429a" stroke-width="1.51"/><path d="M-470,1103L-425,1499L-133,1230Z" fill="#a2cac1" stroke="#a2cac1" stroke-width="1.51"/><path d="M-119,1781L-210,2100L126,1803Z" fill="#929fad" stroke="#929fad" stroke-width="1.51"/><path d="M2551,512L2238,217L2196,471Z" fill="#6c7f9e" stroke="#6c7f9e" stroke-width="1.51"/><path d="M2196,471L2238,217L1869,473Z" fill="#728aaa" stroke="#728aaa" stroke-width="1.51"/><path d="M-113,322L-357,432L-142,438Z" fill="#cbe9b5" stroke="#cbe9b5" stroke-width="1.51"/><path d="M-222,-176L-113,322L228,97Z" fill="#d9efb3" stroke="#d9efb3" stroke-width="1.51"/><path d="M1808,-559L1555,-336L1747,-166Z" fill="#9cafb9" stroke="#9cafb9" stroke-width="1.51"/><path d="M1747,-166L1555,-336L1424,-202Z" fill="#9cb7b7" stroke="#9cb7b7" stroke-width="1.51"/><path d="M1146,-543L781,-433L869,-183Z" fill="#addac4" stroke="#addac4" stroke-width="1.51"/><path d="M625,-195L471,-336L228,97Z" fill="#c4e7b5" stroke="#c4e7b5" stroke-width="1.51"/><path d="M781,-433L625,-195L869,-183Z" fill="#b3debc" stroke="#b3debc" stroke-width="1.51"/><path d="M471,-336L155,-186L228,97Z" fill="#d1ecb4" stroke="#d1ecb4" stroke-width="1.51"/><path d="M1146,-543L1084,-34L1424,-202Z" fill="#a2ccbe" stroke="#a2ccbe" stroke-width="1.51"/><path d="M-357,432L-523,930L-81,740Z" fill="#b7e0bd" stroke="#b7e0bd" stroke-width="1.51"/><path d="M-470,1103L-523,930L-425,1499Z" fill="#a6d0c8" stroke="#a6d0c8" stroke-width="1.51"/><path d="M2238,217L2083,-56L1775,318Z" fill="#8694ab" stroke="#8694ab" stroke-width="1.51"/><path d="M1455,2410L1922,2389L1794,2049Z" fill="#244b9a" stroke="#244b9a" stroke-width="1.51"/><path d="M2382,2540L1922,2389L1455,2410Z" fill="#1d3c88" stroke="#1d3c88" stroke-width="1.51"/><path d="M-433,1912L-210,2100L-119,1781Z" fill="#99a0ae" stroke="#99a0ae" stroke-width="1.51"/><path d="M-43,2430L301,2531L257,2047Z" fill="#7e859c" stroke="#7e859c" stroke-width="1.51"/><path d="M486,2404L301,2531L936,2440Z" fill="#557594" stroke="#557594" stroke-width="1.51"/><path d="M936,2440L301,2531L1235,2458Z" fill="#426e95" stroke="#426e95" stroke-width="1.51"/><path d="M1922,2389L2045,2342L1794,2049Z" fill="#244196" stroke="#244196" stroke-width="1.51"/><path d="M2451,1262L2551,512L2440,821Z" fill="#3e6d95" stroke="#3e6d95" stroke-width="1.51"/><path d="M2149,2066L2526,1679L2112,1838Z" fill="#244497" stroke="#244497" stroke-width="1.51"/><path d="M2526,2161L2526,1679L2149,2066Z" fill="#1f3a8a" stroke="#1f3a8a" stroke-width="1.51"/><path d="M2440,821L2551,512L2196,471Z" fill="#557799" stroke="#557799" stroke-width="1.51"/><path d="M2238,217L2382,-118L2083,-56Z" fill="#8b8ba4" stroke="#8b8ba4" stroke-width="1.51"/><path d="M2526,1679L2551,512L2451,1262Z" fill="#2b6293" stroke="#2b6293" stroke-width="1.51"/><path d="M1555,-336L1146,-543L1424,-202Z" fill="#a0c5c2" stroke="#a0c5c2" stroke-width="1.51"/><path d="M-425,1499L-433,1912L-119,1781Z" fill="#9badb7" stroke="#9badb7" stroke-width="1.51"/><path d="M-210,2100L-43,2430L257,2047Z" fill="#8d8da7" stroke="#8d8da7" stroke-width="1.51"/><path d="M-472,2061L-433,1912L-425,1499Z" fill="#9ca7ba" stroke="#9ca7ba" stroke-width="1.51"/><path d="M-526,2323L-43,2430L-210,2100Z" fill="#948da2" stroke="#948da2" stroke-width="1.51"/><path d="M2551,512L2555,228L2238,217Z" fill="#6d7d93" stroke="#6d7d93" stroke-width="1.51"/><path d="M-433,1912L-472,2061L-210,2100Z" fill="#9b9cb2" stroke="#9b9cb2" stroke-width="1.51"/><path d="M-523,930L-472,2061L-425,1499Z" fill="#a0bec4" stroke="#a0bec4" stroke-width="1.51"/><path d="M-152,-360L-222,-176L155,-186Z" fill="#e8f6b3" stroke="#e8f6b3" stroke-width="1.51"/><path d="M155,-186L-222,-176L228,97Z" fill="#dcf1b3" stroke="#dcf1b3" stroke-width="1.51"/><path d="M-357,432L-490,78L-523,930Z" fill="#c9e9c2" stroke="#c9e9c2" stroke-width="1.51"/><path d="M184,-518L155,-186L471,-336Z" fill="#d8f0bb" stroke="#d8f0bb" stroke-width="1.51"/><path d="M184,-518L471,-336L781,-433Z" fill="#c8e9c1" stroke="#c8e9c1" stroke-width="1.51"/><path d="M1146,-543L184,-518L781,-433Z" fill="#bbe2c6" stroke="#bbe2c6" stroke-width="1.51"/><path d="M-222,-176L-490,78L-113,322Z" fill="#e2f4b6" stroke="#e2f4b6" stroke-width="1.51"/><path d="M1555,-336L1808,-559L1146,-543Z" fill="#a1bec5" stroke="#a1bec5" stroke-width="1.51"/><path d="M2172,-475L1808,-559L1747,-166Z" fill="#9ba3b6" stroke="#9ba3b6" stroke-width="1.51"/><path d="M2555,228L2382,-118L2238,217Z" fill="#7f8497" stroke="#7f8497" stroke-width="1.51"/><path d="M2172,-475L1747,-166L2083,-56Z" fill="#999cac" stroke="#999cac" stroke-width="1.51"/><path d="M2045,2342L2526,2161L2149,2066Z" fill="#233391" stroke="#233391" stroke-width="1.51"/><path d="M2526,1679L2526,2161L2551,512Z" fill="#1d538e" stroke="#1d538e" stroke-width="1.51"/><path d="M2382,2540L2526,2161L2045,2342Z" fill="#1c2c7f" stroke="#1c2c7f" stroke-width="1.51"/><path d="M-222,-176L-400,-131L-490,78Z" fill="#ebf7ba" stroke="#ebf7ba" stroke-width="1.51"/><path d="M184,-518L-152,-360L155,-186Z" fill="#e4f5ba" stroke="#e4f5ba" stroke-width="1.51"/><path d="M-492,-373L-400,-131L-222,-176Z" fill="#f2fabb" stroke="#f2fabb" stroke-width="1.51"/><path d="M2382,-118L2172,-475L2083,-56Z" fill="#978fa6" stroke="#978fa6" stroke-width="1.51"/><path d="M-43,2430L-526,2323L301,2531Z" fill="#868694" stroke="#868694" stroke-width="1.51"/><path d="M-472,2061L-526,2323L-210,2100Z" fill="#9a94b0" stroke="#9a94b0" stroke-width="1.51"/><path d="M-523,930L-526,2323L-472,2061Z" fill="#9eabbf" stroke="#9eabbf" stroke-width="1.51"/><path d="M1922,2389L2382,2540L2045,2342Z" fill="#1e3285" stroke="#1e3285" stroke-width="1.51"/><path d="M1235,2458L2382,2540L1455,2410Z" fill="#1d478c" stroke="#1d478c" stroke-width="1.51"/><path d="M301,2531L2382,2540L1235,2458Z" fill="#245c92" stroke="#245c92" stroke-width="1.51"/><path d="M2382,-118L2468,-358L2172,-475Z" fill="#918ca0" stroke="#918ca0" stroke-width="1.51"/><path d="M2555,228L2468,-358L2382,-118Z" fill="#848491" stroke="#848491" stroke-width="1.51"/><path d="M-152,-360L-492,-373L-222,-176Z" fill="#f2fabb" stroke="#f2fabb" stroke-width="1.51"/><path d="M-400,-131L-492,-373L-490,78Z" fill="#f1fabe" stroke="#f1fabe" stroke-width="1.51"/><path d="M-490,78L-492,-373L-523,930Z" fill="#e0f3c1" stroke="#e0f3c1" stroke-width="1.51"/><path d="M184,-518L-492,-373L-152,-360Z" fill="#f0f9bc" stroke="#f0f9bc" stroke-width="1.51"/></svg>