<svg xmlns="http://www.w3.org/2000/svg" width="2000" height="2000"><path d="M1175,1191L1235,851L771,1158Z" fill="#b96a66" stroke="#b96a66" stroke-width="1.51"/><path d="M1235,851L776,690L771,1158Z" fill="#b6695c" stroke="#b6695c" stroke-width="1.51"/><path d="M1254,344L803,346L776,690Z" fill="#9b614a" stroke="#9b614a" stroke-width="1.51"/><path d="M1235,851L1254,344L776,690Z" fill="#a36555" stroke="#a36555" stroke-width="1.51"/><path d="M771,1158L1208,1663L1175,1191Z" fill="#a76969" stroke="#a76969" stroke-width="1.51"/><path d="M256,686L328,1222L771,1158Z" fill="#9c624d" stroke="#9c624d" stroke-width="1.51"/><path d="M256,686L771,1158L776,690Z" fill="#9d624c" stroke="#9d624c" stroke-width="1.51"/><path d="M1701,1161L1657,681L1235,851Z" fill="#976666" stroke="#976666" stroke-width="1.51"/><path d="M1235,851L1657,681L1254,344Z" fill="#906259" stroke="#906259" stroke-width="1.51"/><path d="M714,1703L1208,1663L771,1158Z" fill="#996666" stroke="#996666" stroke-width="1.51"/><path d="M1701,1161L1235,851L1175,1191Z" fill="#a4686a" stroke="#a4686a" stroke-width="1.51"/><path d="M1716,1640L1701,1161L1175,1191Z" fill="#86656f" stroke="#86656f" stroke-width="1.51"/><path d="M328,1222L714,1703L771,1158Z" fill="#906258" stroke="#906258" stroke-width="1.51"/><path d="M803,346L256,686L776,690Z" fill="#8d5e41" stroke="#8d5e41" stroke-width="1.51"/><path d="M1293,2248L1716,1640L1208,1663Z" fill="#686273" stroke="#686273" stroke-width="1.51"/><path d="M1208,1663L1716,1640L1175,1191Z" fill="#86656f" stroke="#86656f" stroke-width="1.51"/><path d="M-211,1671L296,1721L328,1222Z" fill="#675746" stroke="#675746" stroke-width="1.51"/><path d="M328,1222L296,1721L714,1703Z" fill="#7a5d54" stroke="#7a5d54" stroke-width="1.51"/><path d="M1657,681L1728,272L1254,344Z" fill="#795d53" stroke="#795d53" stroke-width="1.51"/><path d="M1204,-210L771,-158L803,346Z" fill="#805a39" stroke="#805a39" stroke-width="1.51"/><path d="M2229,330L1728,272L1657,681Z" fill="#625a56" stroke="#625a56" stroke-width="1.51"/><path d="M2252,757L1657,681L1701,1161Z" fill="#7d6269" stroke="#7d6269" stroke-width="1.51"/><path d="M256,686L-294,1161L328,1222Z" fill="#865c3e" stroke="#865c3e" stroke-width="1.51"/><path d="M803,346L184,265L256,686Z" fill="#785733" stroke="#785733" stroke-width="1.51"/><path d="M771,-158L184,265L803,346Z" fill="#71552f" stroke="#71552f" stroke-width="1.51"/><path d="M1204,-210L803,346L1254,344Z" fill="#855c41" stroke="#855c41" stroke-width="1.51"/><path d="M1728,272L1204,-210L1254,344Z" fill="#705945" stroke="#705945" stroke-width="1.51"/><path d="M203,2176L828,2198L714,1703Z" fill="#665c5e" stroke="#665c5e" stroke-width="1.51"/><path d="M714,1703L828,2198L1208,1663Z" fill="#81646b" stroke="#81646b" stroke-width="1.51"/><path d="M2292,1330L2252,757L1701,1161Z" fill="#7b6570" stroke="#7b6570" stroke-width="1.51"/><path d="M-289,703L-294,1161L256,686Z" fill="#7d5939" stroke="#7d5939" stroke-width="1.51"/><path d="M828,2198L1293,2248L1208,1663Z" fill="#776471" stroke="#776471" stroke-width="1.51"/><path d="M-214,297L-289,703L256,686Z" fill="#6a532c" stroke="#6a532c" stroke-width="1.51"/><path d="M1716,1640L2292,1330L1701,1161Z" fill="#666174" stroke="#666174" stroke-width="1.51"/><path d="M2175,1712L2292,1330L1716,1640Z" fill="#536076" stroke="#536076" stroke-width="1.51"/><path d="M-294,1161L-211,1671L328,1222Z" fill="#6e5843" stroke="#6e5843" stroke-width="1.51"/><path d="M296,1721L203,2176L714,1703Z" fill="#605956" stroke="#605956" stroke-width="1.51"/><path d="M184,265L-214,297L256,686Z" fill="#625125" stroke="#625125" stroke-width="1.51"/><path d="M-300,-173L-214,297L184,265Z" fill="#514b1c" stroke="#514b1c" stroke-width="1.51"/><path d="M2229,330L1749,-182L1728,272Z" fill="#4d544b" stroke="#4d544b" stroke-width="1.51"/><path d="M1728,272L1749,-182L1204,-210Z" fill="#615645" stroke="#615645" stroke-width="1.51"/><path d="M1713,2217L2175,1712L1716,1640Z" fill="#3b5c79" stroke="#3b5c79" stroke-width="1.51"/><path d="M2252,757L2229,330L1657,681Z" fill="#665d5e" stroke="#665d5e" stroke-width="1.51"/><path d="M2659,688L2229,330L2252,757Z" fill="#6d625c" stroke="#6d625c" stroke-width="1.51"/><path d="M771,-158L308,-249L184,265Z" fill="#615026" stroke="#615026" stroke-width="1.51"/><path d="M681,-694L308,-249L771,-158Z" fill="#715537" stroke="#715537" stroke-width="1.51"/><path d="M828,2198L1234,2657L1293,2248Z" fill="#7e686f" stroke="#7e686f" stroke-width="1.51"/><path d="M-211,1671L203,2176L296,1721Z" fill="#4e5449" stroke="#4e5449" stroke-width="1.51"/><path d="M1293,2248L1713,2217L1716,1640Z" fill="#516076" stroke="#516076" stroke-width="1.51"/><path d="M203,2176L705,2645L828,2198Z" fill="#6b605b" stroke="#6b605b" stroke-width="1.51"/><path d="M1293,2248L1762,2715L1713,2217Z" fill="#586374" stroke="#586374" stroke-width="1.51"/><path d="M705,2645L1234,2657L828,2198Z" fill="#846969" stroke="#846969" stroke-width="1.51"/><path d="M2229,330L2218,-249L1749,-182Z" fill="#445249" stroke="#445249" stroke-width="1.51"/><path d="M2767,1149L2659,688L2252,757Z" fill="#826966" stroke="#826966" stroke-width="1.51"/><path d="M2767,1149L2252,757L2292,1330Z" fill="#83696e" stroke="#83696e" stroke-width="1.51"/><path d="M308,-249L-300,-173L184,265Z" fill="#4c4917" stroke="#4c4917" stroke-width="1.51"/><path d="M1204,-210L681,-694L771,-158Z" fill="#835b42" stroke="#835b42" stroke-width="1.51"/><path d="M1266,-706L681,-694L1204,-210Z" fill="#8a5d4d" stroke="#8a5d4d" stroke-width="1.51"/><path d="M1749,-182L1266,-706L1204,-210Z" fill="#705a4c" stroke="#705a4c" stroke-width="1.51"/><path d="M1747,-749L1266,-706L1749,-182Z" fill="#665854" stroke="#665854" stroke-width="1.51"/><path d="M-211,1671L-289,2128L203,2176Z" fill="#44524b" stroke="#44524b" stroke-width="1.51"/><path d="M-294,1161L-717,1163L-211,1671Z" fill="#765b4d" stroke="#765b4d" stroke-width="1.51"/><path d="M-289,703L-717,1163L-294,1161Z" fill="#8c5d4a" stroke="#8c5d4a" stroke-width="1.51"/><path d="M-786,690L-717,1163L-289,703Z" fill="#865c49" stroke="#865c49" stroke-width="1.51"/><path d="M-687,1776L-289,2128L-211,1671Z" fill="#505553" stroke="#505553" stroke-width="1.51"/><path d="M203,2176L357,2771L705,2645Z" fill="#665f54" stroke="#665f54" stroke-width="1.51"/><path d="M-748,294L-786,690L-289,703Z" fill="#74563d" stroke="#74563d" stroke-width="1.51"/><path d="M-128,-722L-300,-173L308,-249Z" fill="#514b22" stroke="#514b22" stroke-width="1.51"/><path d="M2638,195L2218,-249L2229,330Z" fill="#4d5647" stroke="#4d5647" stroke-width="1.51"/><path d="M1762,2715L2187,2294L1713,2217Z" fill="#3a6077" stroke="#3a6077" stroke-width="1.51"/><path d="M1713,2217L2187,2294L2175,1712Z" fill="#235b7a" stroke="#235b7a" stroke-width="1.51"/><path d="M2640,1677L2767,1149L2292,1330Z" fill="#6e6871" stroke="#6e6871" stroke-width="1.51"/><path d="M2640,1677L2292,1330L2175,1712Z" fill="#596374" stroke="#596374" stroke-width="1.51"/><path d="M2601,2212L2640,1677L2175,1712Z" fill="#3f6177" stroke="#3f6177" stroke-width="1.51"/><path d="M-748,294L-289,703L-214,297Z" fill="#695332" stroke="#695332" stroke-width="1.51"/><path d="M681,-694L273,-689L308,-249Z" fill="#6a5335" stroke="#6a5335" stroke-width="1.51"/><path d="M-128,-722L273,-689L681,-694Z" fill="#645134" stroke="#645134" stroke-width="1.51"/><path d="M2659,688L2638,195L2229,330Z" fill="#645f53" stroke="#645f53" stroke-width="1.51"/><path d="M2762,-172L2638,195L2659,688Z" fill="#5d5d4b" stroke="#5d5d4b" stroke-width="1.51"/><path d="M-717,1163L-687,1776L-211,1671Z" fill="#6a5954" stroke="#6a5954" stroke-width="1.51"/><path d="M-726,2201L-687,1776L-717,1163Z" fill="#60585b" stroke="#60585b" stroke-width="1.51"/><path d="M-300,-173L-748,294L-214,297Z" fill="#574d26" stroke="#574d26" stroke-width="1.51"/><path d="M1266,-706L1747,-749L681,-694Z" fill="#825d56" stroke="#825d56" stroke-width="1.51"/><path d="M2198,-701L1747,-749L1749,-182Z" fill="#4f5558" stroke="#4f5558" stroke-width="1.51"/><path d="M2198,-701L1749,-182L2218,-249Z" fill="#495453" stroke="#495453" stroke-width="1.51"/><path d="M705,2645L357,2771L1234,2657Z" fill="#7e6861" stroke="#7e6861" stroke-width="1.51"/><path d="M-290,2682L357,2771L203,2176Z" fill="#515945" stroke="#515945" stroke-width="1.51"/><path d="M-290,2682L203,2176L-289,2128Z" fill="#4b564a" stroke="#4b564a" stroke-width="1.51"/><path d="M357,2771L1762,2715L1234,2657Z" fill="#856c6c" stroke="#856c6c" stroke-width="1.51"/><path d="M1234,2657L1762,2715L1293,2248Z" fill="#6a6772" stroke="#6a6772" stroke-width="1.51"/><path d="M2224,2621L2601,2212L2187,2294Z" fill="#3c6376" stroke="#3c6376" stroke-width="1.51"/><path d="M2187,2294L2601,2212L2175,1712Z" fill="#305f78" stroke="#305f78" stroke-width="1.51"/><path d="M2640,1677L2601,2212L2767,1149Z" fill="#586674" stroke="#586674" stroke-width="1.51"/><path d="M-300,-173L-648,-224L-748,294Z" fill="#544d29" stroke="#544d29" stroke-width="1.51"/><path d="M-691,-639L-648,-224L-300,-173Z" fill="#594e31" stroke="#594e31" stroke-width="1.51"/><path d="M273,-689L-128,-722L308,-249Z" fill="#5a4e2a" stroke="#5a4e2a" stroke-width="1.51"/><path d="M1747,-749L-128,-722L681,-694Z" fill="#825b49" stroke="#825b49" stroke-width="1.51"/><path d="M1762,2715L2224,2621L2187,2294Z" fill="#386277" stroke="#386277" stroke-width="1.51"/><path d="M2614,-718L2198,-701L2218,-249Z" fill="#525957" stroke="#525957" stroke-width="1.51"/><path d="M-687,1776L-726,2201L-289,2128Z" fill="#4b5659" stroke="#4b5659" stroke-width="1.51"/><path d="M-786,690L-726,2201L-717,1163Z" fill="#7a5c58" stroke="#7a5c58" stroke-width="1.51"/><path d="M2638,195L2762,-172L2218,-249Z" fill="#4f5847" stroke="#4f5847" stroke-width="1.51"/><path d="M2767,1149L2762,-172L2659,688Z" fill="#726458" stroke="#726458" stroke-width="1.51"/><path d="M-726,2201L-290,2682L-289,2128Z" fill="#505853" stroke="#505853" stroke-width="1.51"/><path d="M-128,-722L-691,-639L-300,-173Z" fill="#594e31" stroke="#594e31" stroke-width="1.51"/><path d="M-648,-224L-691,-639L-748,294Z" fill="#594e31" stroke="#594e31" stroke-width="1.51"/><path d="M-748,294L-691,-639L-786,690Z" fill="#5b4f2f" stroke="#5b4f2f" stroke-width="1.51"/><path d="M2198,-701L2614,-718L1747,-749Z" fill="#50585d" stroke="#50585d" stroke-width="1.51"/><path d="M2762,-172L2614,-718L2218,-249Z" fill="#535a50" stroke="#535a50" stroke-width="1.51"/><path d="M1762,2715L2620,2772L2224,2621Z" fill="#426575" stroke="#426575" stroke-width="1.51"/><path d="M2224,2621L2620,2772L2601,2212Z" fill="#456674" stroke="#456674" stroke-width="1.51"/><path d="M2601,2212L2620,2772L2767,1149Z" fill="#3b6376" stroke="#3b6376" stroke-width="1.51"/><path d="M357,2771L2620,2772L1762,2715Z" fill="#626871" stroke="#626871" stroke-width="1.51"/><path d="M-726,2201L-778,2687L-290,2682Z" fill="#565b57" stroke="#565b57" stroke-width="1.51"/><path d="M-290,2682L-778,2687L357,2771Z" fill="#555b4a" stroke="#555b4a" stroke-width="1.51"/><path d="M-786,690L-778,2687L-726,2201Z" fill="#55575f" stroke="#55575f" stroke-width="1.51"/></svg>